<?xml version="1.0" encoding="UTF-8" standalone="no"?>
<svg
   xmlns:ooo="http://xml.openoffice.org/svg/export"
   xmlns:dc="http://purl.org/dc/elements/1.1/"
   xmlns:cc="http://creativecommons.org/ns#"
   xmlns:rdf="http://www.w3.org/1999/02/22-rdf-syntax-ns#"
   xmlns:svg="http://www.w3.org/2000/svg"
   xmlns="http://www.w3.org/2000/svg"
   xmlns:sodipodi="http://sodipodi.sourceforge.net/DTD/sodipodi-0.dtd"
   xmlns:inkscape="http://www.inkscape.org/namespaces/inkscape"
   version="1.2"
   width="75.399994mm"
   height="16.969999mm"
   viewBox="0 0 7539.9995 1697"
   preserveAspectRatio="xMidYMid"
   xml:space="preserve"
   id="svg420"
   sodipodi:docname="banner.svg"
   style="fill-rule:evenodd;stroke-width:28.22200012;stroke-linejoin:round"
   inkscape:version="0.92.4 (5da689c313, 2019-01-14)"><metadata
   id="metadata424"><rdf:RDF><cc:Work
       rdf:about=""><dc:format>image/svg+xml</dc:format><dc:type
         rdf:resource="http://purl.org/dc/dcmitype/StillImage" /></cc:Work></rdf:RDF></metadata><sodipodi:namedview
   pagecolor="#ffffff"
   bordercolor="#666666"
   borderopacity="1"
   objecttolerance="10"
   gridtolerance="10"
   guidetolerance="10"
   inkscape:pageopacity="0"
   inkscape:pageshadow="2"
   inkscape:window-width="1542"
   inkscape:window-height="910"
   id="namedview422"
   showgrid="true"
   showguides="false"
   inkscape:zoom="1.7861812"
   inkscape:cx="96.161673"
   inkscape:cy="-21.962774"
   inkscape:window-x="26"
   inkscape:window-y="17"
   inkscape:window-maximized="0"
   inkscape:current-layer="g295"><inkscape:grid
     type="xygrid"
     id="grid4269"
     originx="0"
     originy="-8.1955957e-05" /></sodipodi:namedview>
 <defs
   class="ClipPathGroup"
   id="defs243">
  <clipPath
   id="presentation_clip_path"
   clipPathUnits="userSpaceOnUse">
   <rect
   x="0"
   y="0"
   width="8128"
   height="2540"
   id="rect237" />
  </clipPath>
  <clipPath
   id="presentation_clip_path_shrink"
   clipPathUnits="userSpaceOnUse">
   <rect
   x="8"
   y="2"
   width="8112"
   height="2535"
   id="rect240" />
  </clipPath>
 
  
 </defs>
 <defs
   class="TextShapeIndex"
   id="defs247">
  <g
   ooo:slide="id1"
   ooo:id-list="id3 id4 id5 id6 id7 id8 id9 id10 id11 id12 id13 id14"
   id="g245" />
 </defs>
 <defs
   class="EmbeddedBulletChars"
   id="defs279">
  <g
   id="bullet-char-template-57356"
   transform="matrix(4.8828125e-4,0,0,-4.8828125e-4,0,0)">
   <path
   d="M 580,1141 1163,571 580,0 -4,571 Z"
   id="path249"
   inkscape:connector-curvature="0" />
  </g>
  <g
   id="bullet-char-template-57354"
   transform="matrix(4.8828125e-4,0,0,-4.8828125e-4,0,0)">
   <path
   d="M 8,1128 H 1137 V 0 H 8 Z"
   id="path252"
   inkscape:connector-curvature="0" />
  </g>
  <g
   id="bullet-char-template-10146"
   transform="matrix(4.8828125e-4,0,0,-4.8828125e-4,0,0)">
   <path
   d="M 174,0 602,739 174,1481 1456,739 Z M 1358,739 309,1346 659,739 Z"
   id="path255"
   inkscape:connector-curvature="0" />
  </g>
  <g
   id="bullet-char-template-10132"
   transform="matrix(4.8828125e-4,0,0,-4.8828125e-4,0,0)">
   <path
   d="M 2015,739 1276,0 H 717 l 543,543 H 174 v 393 h 1086 l -543,545 h 557 z"
   id="path258"
   inkscape:connector-curvature="0" />
  </g>
  <g
   id="bullet-char-template-10007"
   transform="matrix(4.8828125e-4,0,0,-4.8828125e-4,0,0)">
   <path
   d="m 0,-2 c -7,16 -16,29 -25,39 l 381,530 c -94,256 -141,385 -141,387 0,25 13,38 40,38 9,0 21,-2 34,-5 21,4 42,12 65,25 l 27,-13 111,-251 280,301 64,-25 24,25 c 21,-10 41,-24 62,-43 C 886,937 835,863 770,784 769,783 710,716 594,584 L 774,223 c 0,-27 -21,-55 -63,-84 l 16,-20 C 717,90 699,76 672,76 641,76 570,178 457,381 L 164,-76 c -22,-34 -53,-51 -92,-51 -42,0 -63,17 -64,51 -7,9 -10,24 -10,44 0,9 1,19 2,30 z"
   id="path261"
   inkscape:connector-curvature="0" />
  </g>
  <g
   id="bullet-char-template-10004"
   transform="matrix(4.8828125e-4,0,0,-4.8828125e-4,0,0)">
   <path
   d="M 285,-33 C 182,-33 111,30 74,156 52,228 41,333 41,471 c 0,78 14,145 41,201 34,71 87,106 158,106 53,0 88,-31 106,-94 l 23,-176 c 8,-64 28,-97 59,-98 l 735,706 c 11,11 33,17 66,17 42,0 63,-15 63,-46 V 965 c 0,-36 -10,-64 -30,-84 L 442,47 C 390,-6 338,-33 285,-33 Z"
   id="path264"
   inkscape:connector-curvature="0" />
  </g>
  <g
   id="bullet-char-template-9679"
   transform="matrix(4.8828125e-4,0,0,-4.8828125e-4,0,0)">
   <path
   d="M 813,0 C 632,0 489,54 383,161 276,268 223,411 223,592 c 0,181 53,324 160,431 106,107 249,161 430,161 179,0 323,-54 432,-161 108,-107 162,-251 162,-431 0,-180 -54,-324 -162,-431 C 1136,54 992,0 813,0 Z"
   id="path267"
   inkscape:connector-curvature="0" />
  </g>
  <g
   id="bullet-char-template-8226"
   transform="matrix(4.8828125e-4,0,0,-4.8828125e-4,0,0)">
   <path
   d="m 346,457 c -73,0 -137,26 -191,78 -54,51 -81,114 -81,188 0,73 27,136 81,188 54,52 118,78 191,78 73,0 134,-26 185,-79 51,-51 77,-114 77,-187 0,-75 -25,-137 -76,-188 -50,-52 -112,-78 -186,-78 z"
   id="path270"
   inkscape:connector-curvature="0" />
  </g>
  <g
   id="bullet-char-template-8211"
   transform="matrix(4.8828125e-4,0,0,-4.8828125e-4,0,0)">
   <path
   d="M -4,459 H 1135 V 606 H -4 Z"
   id="path273"
   inkscape:connector-curvature="0" />
  </g>
  <g
   id="bullet-char-template-61548"
   transform="matrix(4.8828125e-4,0,0,-4.8828125e-4,0,0)">
   <path
   d="m 173,740 c 0,163 58,303 173,419 116,115 255,173 419,173 163,0 302,-58 418,-173 116,-116 174,-256 174,-419 0,-163 -58,-303 -174,-418 C 1067,206 928,148 765,148 601,148 462,206 346,322 231,437 173,577 173,740 Z"
   id="path276"
   inkscape:connector-curvature="0" />
  </g>
 </defs>
 <defs
   class="TextEmbeddedBitmaps"
   id="defs281" />
 
 <g
   id="g295"
   class="Graphic"
   inkscape:groupmode="layer"
   transform="translate(-156.16666,-267.24999)"><path
   style="display:inline;fill:#000000;stroke:none"
   inkscape:connector-curvature="0"
   id="path290"
   d="m 929.16666,861.24999 456.99994,-594 511,844.99991 -482,842 z" /><path
   style="display:inline;fill:#000000;stroke:none"
   inkscape:connector-curvature="0"
   id="path292"
   d="m 156.16666,879.24999 744,-1 479.99994,1085.99991 -856.99994,-237 z" />
       
      </g><g
   id="g410"
   class="Group"
   inkscape:groupmode="layer"
   transform="translate(-156.16666,-267.24999)">
       <g
   id="g304"
   class="com.sun.star.drawing.PolyPolygonShape"
   transform="translate(-105.83334,-158.75001)">
        <g
   id="id4">
         <rect
   style="fill:none;stroke:none"
   id="rect297"
   height="1230"
   width="448"
   y="674"
   x="2380"
   class="BoundingBox" />
         <path
   style="fill:#000000;stroke:none"
   inkscape:connector-curvature="0"
   id="path299"
   d="m 2628,1894 h -10 l -11,-1 -10,-2 -10,-2 -10,-3 -10,-4 -9,-4 -10,-4 -9,-6 -8,-5 -9,-6 -8,-7 -7,-7 -8,-7 -7,-8 -6,-9 -6,-8 -6,-9 -5,-10 -6,-10 -10,-22 -9,-24 -9,-25 -8,-26 -6,-27 -5,-26 -9,-50 -7,-56 -5,-64 -4,-71 -2,-123 v -97 l 2,-87 1,-44 2,-38 3,-34 2,-15 3,-14 -2,-11 -2,-12 -1,-12 v -13 l 1,-22 2,-11 1,-11 3,-10 3,-11 3,-9 5,-10 4,-9 5,-9 6,-9 6,-8 7,-9 8,-7 7,-8 9,-7 18,-14 19,-11 21,-10 21,-8 23,-7 24,-4 25,-3 26,-1 10,1 10,1 9,1 10,3 9,3 9,3 9,5 8,5 8,6 4,3 3,3 3,3 3,3 3,3 2,3 2,4 2,3 1,4 1,4 1,3 1,4 v 4 4 2 2 2 2 l -1,1 v 2 l -1,2 -1,1 v 2 l -1,1 -1,2 -2,1 -1,1 -1,2 -1,1 -2,1 -3,2 -4,2 -3,2 -4,1 -4,1 -4,1 h -4 -5 -4 -4 -4 l -4,-1 -9,-1 -8,-2 -5,-1 -3,-2 -4,-1 -3,-2 -1,-1 -2,-1 -1,-1 -1,-1 -1,-1 -1,-1 v -1 l -1,-1 h -20 v -3 h -14 l -14,1 -12,2 -13,3 -12,3 -11,5 -10,5 -10,6 -4,2 -3,3 -6,6 -6,7 -6,8 -5,9 -5,10 -5,10 -4,11 -1,5 -2,4 -2,11 -2,11 -2,13 -1,13 -1,12 -1,12 v 11 l -1,8 v 10 l -1,32 3,54 2,53 v 12 l -2,13 -2,14 -2,15 -4,18 -2,15 -2,12 v 5 4 38 l 5,166 1,44 4,44 7,44 8,45 4,20 4,19 6,19 6,18 7,17 8,16 8,15 10,15 4,7 5,7 5,6 6,6 5,5 6,5 6,4 6,4 7,4 6,3 7,2 7,2 8,2 7,1 8,1 h 7 4 3 l 4,-1 3,-1 8,-2 8,-3 8,-4 9,-5 9,-5 10,-7 19,-12 9,-5 7,-4 7,-3 7,-2 2,-1 h 3 l 2,-1 h 3 2 l 3,1 h 3 l 3,1 2,1 3,1 3,1 3,1 5,3 6,4 6,5 6,6 -1,14 -1,6 -1,7 -2,6 -1,6 -3,6 -2,5 -3,6 -3,5 -4,5 -4,5 -4,4 -5,5 -5,4 -5,4 -10,7 -11,6 -11,5 -12,5 -12,4 -13,4 -13,2 -14,3 -28,2 -12,1 z" />
         <path
   style="fill:none;stroke:#000000;stroke-width:18;stroke-linejoin:round"
   inkscape:connector-curvature="0"
   id="path301"
   d="m 2628,1894 h -10 l -11,-1 -10,-2 -10,-2 -10,-3 -10,-4 -9,-4 -10,-4 -9,-6 -8,-5 -9,-6 -8,-7 -7,-7 -8,-7 -7,-8 -6,-9 -6,-8 -6,-9 -5,-10 -6,-10 -10,-22 -9,-24 -9,-25 -8,-26 -6,-27 -5,-26 -9,-50 -7,-56 -5,-64 -4,-71 -2,-123 v -97 l 2,-87 1,-44 2,-38 3,-34 2,-15 3,-14 -2,-11 -2,-12 -1,-12 v -13 l 1,-22 2,-11 1,-11 3,-10 3,-11 3,-9 5,-10 4,-9 5,-9 6,-9 6,-8 7,-9 8,-7 7,-8 9,-7 18,-14 19,-11 21,-10 21,-8 23,-7 24,-4 25,-3 26,-1 10,1 10,1 9,1 10,3 9,3 9,3 9,5 8,5 8,6 4,3 3,3 3,3 3,3 3,3 2,3 2,4 2,3 1,4 1,4 1,3 1,4 v 4 4 2 2 2 2 l -1,1 v 2 l -1,2 -1,1 v 2 l -1,1 -1,2 -2,1 -1,1 -1,2 -1,1 -2,1 -3,2 -4,2 -3,2 -4,1 -4,1 -4,1 h -4 -5 -4 -4 -4 l -4,-1 -9,-1 -8,-2 -5,-1 -3,-2 -4,-1 -3,-2 -1,-1 -2,-1 -1,-1 -1,-1 -1,-1 -1,-1 v -1 l -1,-1 h -20 v -3 h -14 l -14,1 -12,2 -13,3 -12,3 -11,5 -10,5 -10,6 -4,2 -3,3 -6,6 -6,7 -6,8 -5,9 -5,10 -5,10 -4,11 -1,5 -2,4 -2,11 -2,11 -2,13 -1,13 -1,12 -1,12 v 11 l -1,8 v 10 l -1,32 3,54 2,53 v 12 l -2,13 -2,14 -2,15 -4,18 -2,15 -2,12 v 5 4 38 l 5,166 1,44 4,44 7,44 8,45 4,20 4,19 6,19 6,18 7,17 8,16 8,15 10,15 4,7 5,7 5,6 6,6 5,5 6,5 6,4 6,4 7,4 6,3 7,2 7,2 8,2 7,1 8,1 h 7 4 3 l 4,-1 3,-1 8,-2 8,-3 8,-4 9,-5 9,-5 10,-7 19,-12 9,-5 7,-4 7,-3 7,-2 2,-1 h 3 l 2,-1 h 3 2 l 3,1 h 3 l 3,1 2,1 3,1 3,1 3,1 5,3 6,4 6,5 6,6 -1,14 -1,6 -1,7 -2,6 -1,6 -3,6 -2,5 -3,6 -3,5 -4,5 -4,5 -4,4 -5,5 -5,4 -5,4 -10,7 -11,6 -11,5 -12,5 -12,4 -13,4 -13,2 -14,3 -28,2 -12,1 z" />
        </g>
       </g>
       <g
   id="g315"
   class="com.sun.star.drawing.PolyPolygonShape"
   transform="translate(-105.83334,-158.75001)">
        <g
   id="id5">
         <rect
   style="fill:none;stroke:none"
   id="rect306"
   height="1188"
   width="445"
   y="691"
   x="2843"
   class="BoundingBox" />
         <path
   style="fill:#000000;stroke:none"
   inkscape:connector-curvature="0"
   id="path308"
   d="m 3226,1869 h -6 l -5,-1 h -5 l -5,-1 -4,-2 -4,-1 -2,-1 -2,-1 -2,-1 -1,-1 -1,-2 -2,-1 -1,-1 -1,-2 -1,-1 -1,-2 -1,-2 -1,-2 v -2 l -1,-2 -1,-4 -1,-5 v -5 -204 l -2,-1 -3,-2 -7,-3 -8,-4 -9,-3 -10,-3 -11,-3 -26,-5 -27,-5 -27,-4 -26,-3 -25,-2 -4,8 -4,9 -4,9 -3,10 -3,10 -3,10 -2,11 -2,12 -6,31 -1,7 -2,10 -7,31 -4,18 -4,17 -4,15 -5,14 -4,13 -5,11 -5,10 -2,5 -2,4 -14,-1 -13,-1 -5,-1 -6,-1 -4,-2 -5,-2 -4,-2 -4,-2 -3,-3 -3,-3 -2,-3 -3,-3 -1,-3 -2,-4 3,-4 2,-4 4,-11 5,-13 5,-17 10,-42 10,-55 51,-284 63,-345 15,-68 15,-63 16,-57 16,-51 8,-25 9,-21 9,-19 8,-15 5,-6 4,-6 4,-4 4,-4 5,-3 4,-2 2,-1 h 2 l 2,-1 h 2 l 8,1 h 7 l 7,1 7,1 6,2 5,2 3,2 2,1 2,1 3,2 v 18 l 1,24 6,64 22,193 23,196 6,71 2,28 v 23 l 1,46 3,55 13,135 12,141 3,59 1,50 -1,7 v 6 l -1,5 -2,5 -1,5 -3,4 -2,4 -3,4 -4,3 -3,3 -5,2 -4,2 -5,1 -6,1 -5,1 z m -80,-334 h 3 3 4 l 4,-1 8,-1 9,-2 -16,-170 -27,-282 -6,-91 -2,-56 v -13 l -2,3 -3,3 -2,4 -2,5 -5,12 -5,16 -11,42 -13,56 -51,267 -17,119 -5,41 -2,17 v 13 l 16,4 17,4 17,3 17,3 17,2 18,1 18,1 z" />
         <path
   style="fill:none;stroke:#000000;stroke-width:18;stroke-linejoin:round"
   inkscape:connector-curvature="0"
   id="path310"
   d="m 3226,1869 h -6 l -5,-1 h -5 l -5,-1 -4,-2 -4,-1 -2,-1 -2,-1 -2,-1 -1,-1 -1,-2 -2,-1 -1,-1 -1,-2 -1,-1 -1,-2 -1,-2 -1,-2 v -2 l -1,-2 -1,-4 -1,-5 v -5 -204 l -2,-1 -3,-2 -7,-3 -8,-4 -9,-3 -10,-3 -11,-3 -26,-5 -27,-5 -27,-4 -26,-3 -25,-2 -4,8 -4,9 -4,9 -3,10 -3,10 -3,10 -2,11 -2,12 -6,31 -1,7 -2,10 -7,31 -4,18 -4,17 -4,15 -5,14 -4,13 -5,11 -5,10 -2,5 -2,4 -14,-1 -13,-1 -5,-1 -6,-1 -4,-2 -5,-2 -4,-2 -4,-2 -3,-3 -3,-3 -2,-3 -3,-3 -1,-3 -2,-4 3,-4 2,-4 4,-11 5,-13 5,-17 10,-42 10,-55 51,-284 63,-345 15,-68 15,-63 16,-57 16,-51 8,-25 9,-21 9,-19 8,-15 5,-6 4,-6 4,-4 4,-4 5,-3 4,-2 2,-1 h 2 l 2,-1 h 2 l 8,1 h 7 l 7,1 7,1 6,2 5,2 3,2 2,1 2,1 3,2 v 18 l 1,24 6,64 22,193 23,196 6,71 2,28 v 23 l 1,46 3,55 13,135 12,141 3,59 1,50 -1,7 v 6 l -1,5 -2,5 -1,5 -3,4 -2,4 -3,4 -4,3 -3,3 -5,2 -4,2 -5,1 -6,1 -5,1 z" />
         <path
   style="fill:none;stroke:#000000;stroke-width:18;stroke-linejoin:round"
   inkscape:connector-curvature="0"
   id="path312"
   d="m 3146,1535 h 3 3 4 l 4,-1 8,-1 9,-2 -16,-170 -27,-282 -6,-91 -2,-56 v -13 l -2,3 -3,3 -2,4 -2,5 -5,12 -5,16 -11,42 -13,56 -51,267 -17,119 -5,41 -2,17 v 13 l 16,4 17,4 17,3 17,3 17,2 18,1 18,1 z" />
        </g>
       </g>
       <g
   id="g324"
   class="com.sun.star.drawing.PolyPolygonShape"
   transform="translate(-105.83334,-158.75001)">
        <g
   id="id6">
         <rect
   style="fill:none;stroke:none"
   id="rect317"
   height="1204"
   width="300"
   y="685"
   x="3422"
   class="BoundingBox" />
         <path
   style="fill:#000000;stroke:none"
   inkscape:connector-curvature="0"
   id="path319"
   d="m 3530,1878 h -8 -7 l -6,-1 -7,-1 -6,-1 -6,-1 -6,-2 -6,-1 -3,-2 -3,-1 -3,-1 -2,-2 -3,-2 -2,-2 -2,-3 -1,-2 -2,-3 -1,-3 -1,-3 -1,-4 -1,-4 -1,-3 v -5 -4 -902 -7 l -1,-7 -1,-19 -3,-21 -4,-25 -5,-23 -3,-21 -3,-18 v -9 -8 -5 l 12,-19 11,-16 9,-12 3,-5 4,-3 11,-1 14,-1 15,-2 17,-3 16,-2 15,-2 14,-1 12,-1 h 7 l 6,1 6,1 6,2 6,2 6,2 6,3 6,4 5,4 5,4 2,2 2,2 1,2 2,2 1,2 2,2 1,3 v 2 l 1,2 v 3 l 1,2 v 3 5 l -1,6 -2,5 -2,4 -2,4 -3,4 -4,4 -4,3 -5,2 -5,3 -6,2 -6,1 -7,2 -8,1 h -17 -21 -5 l -5,-1 h -6 -6 -6 -5 -2 l -2,1 h -1 -1 v 0 28 l 1,31 5,69 3,43 3,85 v 17 l -1,21 -3,52 -3,87 21,-4 15,-4 14,-3 6,-1 6,-1 h 5 l 6,-1 4,1 h 2 2 l 2,1 h 2 l 4,2 4,2 3,2 4,3 4,3 3,3 3,3 2,4 1,2 1,2 1,2 1,2 v 2 l 1,2 v 2 2 2 l 1,2 -1,4 v 5 l -1,4 -1,5 -2,4 -2,4 -2,3 -3,4 -3,4 -2,1 -1,2 -2,1 -2,1 -1,1 -2,1 -2,1 -2,1 -2,1 h -2 -2 l -2,1 h -2 -2 l -18,-2 h -21 l -5,1 h -5 l -5,1 -4,1 -2,1 -2,1 -2,1 -2,1 -1,1 -2,1 -1,1 -1,1 v 480 l 87,-5 20,1 18,2 8,1 8,2 6,2 6,2 5,3 5,3 4,3 3,4 1,2 1,2 1,2 1,2 1,5 v 5 6 l -1,2 -1,2 -3,5 -4,4 -4,4 -5,3 -5,4 -5,3 -6,3 -6,3 -6,2 -6,3 -6,2 -6,1 -6,2 -6,1 -6,1 -51,1 z" />
         <path
   style="fill:none;stroke:#000000;stroke-width:18;stroke-linejoin:round"
   inkscape:connector-curvature="0"
   id="path321"
   d="m 3530,1878 h -8 -7 l -6,-1 -7,-1 -6,-1 -6,-1 -6,-2 -6,-1 -3,-2 -3,-1 -3,-1 -2,-2 -3,-2 -2,-2 -2,-3 -1,-2 -2,-3 -1,-3 -1,-3 -1,-4 -1,-4 -1,-3 v -5 -4 -902 -7 l -1,-7 -1,-19 -3,-21 -4,-25 -5,-23 -3,-21 -3,-18 v -9 -8 -5 l 12,-19 11,-16 9,-12 3,-5 4,-3 11,-1 14,-1 15,-2 17,-3 16,-2 15,-2 14,-1 12,-1 h 7 l 6,1 6,1 6,2 6,2 6,2 6,3 6,4 5,4 5,4 2,2 2,2 1,2 2,2 1,2 2,2 1,3 v 2 l 1,2 v 3 l 1,2 v 3 5 l -1,6 -2,5 -2,4 -2,4 -3,4 -4,4 -4,3 -5,2 -5,3 -6,2 -6,1 -7,2 -8,1 h -17 -21 -5 l -5,-1 h -6 -6 -6 -5 -2 l -2,1 h -1 -1 v 0 28 l 1,31 5,69 3,43 3,85 v 17 l -1,21 -3,52 -3,87 21,-4 15,-4 14,-3 6,-1 6,-1 h 5 l 6,-1 4,1 h 2 2 l 2,1 h 2 l 4,2 4,2 3,2 4,3 4,3 3,3 3,3 2,4 1,2 1,2 1,2 1,2 v 2 l 1,2 v 2 2 2 l 1,2 -1,4 v 5 l -1,4 -1,5 -2,4 -2,4 -2,3 -3,4 -3,4 -2,1 -1,2 -2,1 -2,1 -1,1 -2,1 -2,1 -2,1 -2,1 h -2 -2 l -2,1 h -2 -2 l -18,-2 h -21 l -5,1 h -5 l -5,1 -4,1 -2,1 -2,1 -2,1 -2,1 -1,1 -2,1 -1,1 -1,1 v 480 l 87,-5 20,1 18,2 8,1 8,2 6,2 6,2 5,3 5,3 4,3 3,4 1,2 1,2 1,2 1,2 1,5 v 5 6 l -1,2 -1,2 -3,5 -4,4 -4,4 -5,3 -5,4 -5,3 -6,3 -6,3 -6,2 -6,3 -6,2 -6,1 -6,2 -6,1 -6,1 -51,1 z" />
        </g>
       </g>
       <g
   id="g333"
   class="com.sun.star.drawing.PolyPolygonShape"
   transform="translate(-105.83334,-158.75001)">
        <g
   id="id7">
         <rect
   style="fill:none;stroke:none"
   id="rect326"
   height="1344"
   width="294"
   y="683"
   x="4045"
   class="BoundingBox" />
         <path
   style="fill:#000000;stroke:none"
   inkscape:connector-curvature="0"
   id="path328"
   d="m 4133,2016 h -6 -6 l -5,-1 -5,-2 -5,-1 -5,-3 -4,-2 -4,-3 -2,-2 -2,-1 -1,-2 -2,-2 -1,-2 -2,-2 -1,-2 -1,-2 -1,-2 v -3 l -1,-2 -1,-3 v -5 l -1,-6 v -2 l 1,-2 v -2 -2 l 1,-2 1,-3 1,-2 1,-2 3,-5 3,-4 4,-5 4,-4 5,-5 5,-4 5,-4 5,-4 5,-3 5,-3 6,-3 6,-2 6,-8 5,-9 6,-10 5,-11 5,-12 6,-13 10,-29 4,-15 4,-16 3,-16 3,-16 2,-16 2,-16 1,-16 v -16 l 1,-76 2,-75 -2,-63 -7,-157 -34,-542 -1,1 h -1 l -1,1 h -2 l -3,1 -2,1 h -4 l -7,1 -6,2 -6,1 -6,2 -6,1 -5,1 h -6 l -6,1 h -5 -4 l -2,-1 h -2 -1 l -2,-1 -2,-1 h -2 l -1,-1 -2,-1 -3,-2 -3,-2 -3,-3 -3,-3 -2,-3 -2,-3 -1,-2 -1,-2 -1,-1 v -2 l -1,-2 v -2 l -1,-1 v -2 -4 -3 l 1,-4 1,-3 1,-3 2,-3 2,-3 2,-2 3,-3 6,-5 8,-4 9,-4 11,-4 12,-3 14,-3 32,-4 37,-3 h 44 20 10 9 l 8,1 h 4 l 3,1 3,1 3,1 3,1 3,1 3,2 3,1 3,2 2,3 2,1 1,1 2,1 1,2 1,1 1,2 1,1 1,2 v 2 l 1,2 1,2 v 2 l 1,4 v 4 l -1,5 v 5 l -2,4 -1,4 -3,4 -2,3 -4,3 -4,3 -4,2 -5,2 -5,2 -6,1 -6,1 -7,1 -15,1 h -1 v 0 0 0 h -1 v 0 0 0 -1 0 0 0 0 0 -1 h -3 -20 v 13 22 l 2,28 3,32 4,37 6,75 1,27 1,19 1,60 3,71 11,170 10,166 2,72 1,65 v 62 62 l -1,23 -2,22 -3,22 -4,21 -6,20 -7,20 -8,19 -9,18 -10,18 -12,16 -12,14 -13,13 -15,11 -15,10 -16,8 z" />
         <path
   style="fill:none;stroke:#000000;stroke-width:18;stroke-linejoin:round"
   inkscape:connector-curvature="0"
   id="path330"
   d="m 4133,2016 h -6 -6 l -5,-1 -5,-2 -5,-1 -5,-3 -4,-2 -4,-3 -2,-2 -2,-1 -1,-2 -2,-2 -1,-2 -2,-2 -1,-2 -1,-2 -1,-2 v -3 l -1,-2 -1,-3 v -5 l -1,-6 v -2 l 1,-2 v -2 -2 l 1,-2 1,-3 1,-2 1,-2 3,-5 3,-4 4,-5 4,-4 5,-5 5,-4 5,-4 5,-4 5,-3 5,-3 6,-3 6,-2 6,-8 5,-9 6,-10 5,-11 5,-12 6,-13 10,-29 4,-15 4,-16 3,-16 3,-16 2,-16 2,-16 1,-16 v -16 l 1,-76 2,-75 -2,-63 -7,-157 -34,-542 -1,1 h -1 l -1,1 h -2 l -3,1 -2,1 h -4 l -7,1 -6,2 -6,1 -6,2 -6,1 -5,1 h -6 l -6,1 h -5 -4 l -2,-1 h -2 -1 l -2,-1 -2,-1 h -2 l -1,-1 -2,-1 -3,-2 -3,-2 -3,-3 -3,-3 -2,-3 -2,-3 -1,-2 -1,-2 -1,-1 v -2 l -1,-2 v -2 l -1,-1 v -2 -4 -3 l 1,-4 1,-3 1,-3 2,-3 2,-3 2,-2 3,-3 6,-5 8,-4 9,-4 11,-4 12,-3 14,-3 32,-4 37,-3 h 44 20 10 9 l 8,1 h 4 l 3,1 3,1 3,1 3,1 3,1 3,2 3,1 3,2 2,3 2,1 1,1 2,1 1,2 1,1 1,2 1,1 1,2 v 2 l 1,2 1,2 v 2 l 1,4 v 4 l -1,5 v 5 l -2,4 -1,4 -3,4 -2,3 -4,3 -4,3 -4,2 -5,2 -5,2 -6,1 -6,1 -7,1 -15,1 h -1 v 0 0 0 h -1 v 0 0 0 -1 0 0 0 0 0 -1 h -3 -20 v 13 22 l 2,28 3,32 4,37 6,75 1,27 1,19 1,60 3,71 11,170 10,166 2,72 1,65 v 62 62 l -1,23 -2,22 -3,22 -4,21 -6,20 -7,20 -8,19 -9,18 -10,18 -12,16 -12,14 -13,13 -15,11 -15,10 -16,8 z" />
        </g>
       </g>
       <g
   id="g344"
   class="com.sun.star.drawing.PolyPolygonShape"
   transform="translate(-105.83334,-158.75001)">
        <g
   id="id8">
         <rect
   style="fill:none;stroke:none"
   id="rect335"
   height="1094"
   width="428"
   y="815"
   x="4485"
   class="BoundingBox" />
         <path
   style="fill:#000000;stroke:none"
   inkscape:connector-curvature="0"
   id="path337"
   d="m 4694,1898 h -10 l -10,-1 -9,-2 -10,-3 -9,-4 -9,-4 -9,-5 -8,-6 -9,-7 -8,-7 -7,-8 -7,-8 -7,-9 -6,-10 -6,-10 -6,-10 -11,-24 -9,-25 -9,-25 -8,-25 -6,-26 -5,-27 -5,-27 -3,-28 -6,-52 -4,-51 -3,-51 -1,-49 v -9 -8 l 1,-7 1,-7 v -28 -2 -1 l -1,-2 v -1 0 -1 0 0 0 0 h -1 v -1 0 0 0 0 -28 l 2,-108 1,-29 2,-36 9,-94 2,-18 3,-18 4,-19 4,-18 5,-18 5,-18 6,-17 7,-18 3,-7 3,-7 3,-7 3,-6 4,-6 4,-5 3,-5 5,-4 4,-4 4,-3 5,-3 5,-2 2,-1 3,-1 2,-1 h 3 l 5,-1 h 5 16 l 15,1 14,2 14,2 14,3 14,4 13,5 12,5 12,6 12,6 11,7 11,8 10,8 10,9 9,9 9,10 8,10 7,10 7,11 7,12 6,12 6,13 6,13 6,14 10,29 8,30 7,30 6,32 4,33 3,34 2,35 v 36 12 l 2,87 1,89 -3,104 -10,91 -7,40 -9,37 -11,33 -12,30 -14,26 -15,23 -17,19 -19,16 -10,6 -10,6 -11,5 -11,4 -24,5 z m -6,-65 h 4 3 3 l 4,-1 3,-1 3,-1 4,-1 3,-1 6,-3 6,-4 6,-5 6,-5 6,-6 5,-6 5,-7 5,-8 4,-8 4,-8 4,-9 3,-10 7,-19 6,-21 6,-21 5,-21 4,-21 3,-22 3,-23 2,-22 3,-38 2,-36 2,-33 v -30 -37 l -2,-44 -8,-102 -7,-104 -2,-41 -1,-33 v -28 l -1,-15 -2,-14 -4,-13 -4,-13 -6,-13 -6,-12 -8,-12 -8,-11 -10,-10 -5,-5 -5,-4 -5,-4 -5,-3 -5,-3 -6,-3 -6,-3 -5,-2 -6,-2 -6,-2 -6,-1 -7,-1 h -6 -7 -6 l -6,1 -6,1 -6,2 -5,2 -5,2 -5,3 -4,4 -5,4 -4,4 -3,5 -4,6 -3,6 -3,6 -2,7 -2,7 -4,13 -3,13 -3,14 -2,15 -2,16 -1,17 -1,36 v 28 l 1,11 1,11 v 42 l -3,71 -2,17 -1,18 v 18 l -1,19 5,166 4,58 7,57 9,56 11,55 7,27 7,24 8,19 4,9 5,8 4,6 5,6 5,5 5,4 6,3 5,3 6,1 z" />
         <path
   style="fill:none;stroke:#000000;stroke-width:18;stroke-linejoin:round"
   inkscape:connector-curvature="0"
   id="path339"
   d="m 4694,1898 h -10 l -10,-1 -9,-2 -10,-3 -9,-4 -9,-4 -9,-5 -8,-6 -9,-7 -8,-7 -7,-8 -7,-8 -7,-9 -6,-10 -6,-10 -6,-10 -11,-24 -9,-25 -9,-25 -8,-25 -6,-26 -5,-27 -5,-27 -3,-28 -6,-52 -4,-51 -3,-51 -1,-49 v -9 -8 l 1,-7 1,-7 v -28 -2 -1 l -1,-2 v -1 0 -1 0 0 0 0 h -1 v -1 0 0 0 0 -28 l 2,-108 1,-29 2,-36 9,-94 2,-18 3,-18 4,-19 4,-18 5,-18 5,-18 6,-17 7,-18 3,-7 3,-7 3,-7 3,-6 4,-6 4,-5 3,-5 5,-4 4,-4 4,-3 5,-3 5,-2 2,-1 3,-1 2,-1 h 3 l 5,-1 h 5 16 l 15,1 14,2 14,2 14,3 14,4 13,5 12,5 12,6 12,6 11,7 11,8 10,8 10,9 9,9 9,10 8,10 7,10 7,11 7,12 6,12 6,13 6,13 6,14 10,29 8,30 7,30 6,32 4,33 3,34 2,35 v 36 12 l 2,87 1,89 -3,104 -10,91 -7,40 -9,37 -11,33 -12,30 -14,26 -15,23 -17,19 -19,16 -10,6 -10,6 -11,5 -11,4 -24,5 z" />
         <path
   style="fill:none;stroke:#000000;stroke-width:18;stroke-linejoin:round"
   inkscape:connector-curvature="0"
   id="path341"
   d="m 4688,1833 h 4 3 3 l 4,-1 3,-1 3,-1 4,-1 3,-1 6,-3 6,-4 6,-5 6,-5 6,-6 5,-6 5,-7 5,-8 4,-8 4,-8 4,-9 3,-10 7,-19 6,-21 6,-21 5,-21 4,-21 3,-22 3,-23 2,-22 3,-38 2,-36 2,-33 v -30 -37 l -2,-44 -8,-102 -7,-104 -2,-41 -1,-33 v -28 l -1,-15 -2,-14 -4,-13 -4,-13 -6,-13 -6,-12 -8,-12 -8,-11 -10,-10 -5,-5 -5,-4 -5,-4 -5,-3 -5,-3 -6,-3 -6,-3 -5,-2 -6,-2 -6,-2 -6,-1 -7,-1 h -6 -7 -6 l -6,1 -6,1 -6,2 -5,2 -5,2 -5,3 -4,4 -5,4 -4,4 -3,5 -4,6 -3,6 -3,6 -2,7 -2,7 -4,13 -3,13 -3,14 -2,15 -2,16 -1,17 -1,36 v 28 l 1,11 1,11 v 42 l -3,71 -2,17 -1,18 v 18 l -1,19 5,166 4,58 7,57 9,56 11,55 7,27 7,24 8,19 4,9 5,8 4,6 5,6 5,5 5,4 6,3 5,3 6,1 z" />
        </g>
       </g>
       <g
   id="g357"
   class="com.sun.star.drawing.PolyPolygonShape"
   transform="translate(-105.83334,-158.75001)">
        <g
   id="id9">
         <rect
   style="fill:none;stroke:none"
   id="rect346"
   height="1083"
   width="296"
   y="812"
   x="5039"
   class="BoundingBox" />
         <path
   style="fill:#000000;stroke:none"
   inkscape:connector-curvature="0"
   id="path348"
   d="m 5097,1885 -4,-1 h -4 l -4,-1 h -4 l -3,-1 -3,-2 -3,-1 -3,-2 -2,-2 -3,-2 -2,-2 -2,-3 -1,-3 -2,-3 -1,-3 -1,-4 -2,-5 -1,-5 -1,-6 -1,-6 -1,-7 v -8 -16 l 6,-164 6,-88 1,-41 1,-37 4,-247 3,-245 v -4 -4 l -1,-10 -1,-11 -2,-13 -5,-39 v -8 -8 l 1,-8 1,-8 1,-7 1,-6 2,-6 2,-5 2,-2 1,-3 1,-2 2,-2 2,-1 1,-2 2,-2 3,-1 2,-1 2,-1 3,-1 3,-1 3,-1 3,-1 h 6 l 7,-1 10,1 11,1 11,2 10,2 12,3 11,4 12,5 12,6 11,6 11,6 10,7 9,7 8,8 8,8 7,8 6,9 10,19 9,20 8,22 6,22 5,24 4,25 2,27 1,27 -1,40 -3,37 -2,17 -2,16 -3,16 -3,14 -4,14 -5,14 -5,14 -5,13 -7,13 -7,13 -7,12 -9,12 10,11 10,11 8,12 8,12 6,13 6,14 5,15 4,15 4,17 3,17 4,37 3,42 1,45 -1,23 -1,23 -3,21 -3,21 -5,20 -6,20 -6,19 -8,17 -10,19 -11,18 -12,16 -13,14 -14,13 -15,11 -16,10 -17,8 -11,4 -11,3 -11,2 -11,3 -11,1 -11,2 h -10 z m 49,-595 10,-1 5,-1 4,-1 5,-2 4,-2 4,-2 4,-3 7,-7 7,-8 6,-10 5,-11 5,-12 4,-14 3,-15 3,-17 4,-38 1,-44 -1,-47 -3,-41 -5,-35 -3,-15 -4,-14 -4,-13 -5,-10 -5,-10 -6,-8 -6,-6 -3,-3 -4,-2 -3,-2 -4,-1 -4,-1 -4,-1 -2,5 -2,5 -3,14 -3,16 -2,20 -4,47 -1,60 z m -9,515 6,-1 6,-2 6,-2 6,-2 5,-3 5,-3 5,-3 5,-4 5,-4 5,-4 4,-4 4,-5 8,-10 8,-12 6,-12 6,-13 5,-13 4,-13 3,-14 2,-15 1,-14 1,-16 -1,-31 -1,-30 -3,-28 -3,-26 -4,-18 -3,-17 -5,-15 -2,-7 -2,-7 -3,-6 -3,-7 -3,-6 -3,-6 -4,-6 -4,-5 -3,-6 -5,-5 -4,-6 -5,-5 -5,-4 -6,-4 -5,-3 -6,-3 -6,-2 -6,-1 -3,47 -2,55 -1,132 -1,7 v 12 l -2,40 -4,53 1,1 v 0 1 0 1 0 0 1 h 1 v 0 0 0 4 z" />
         <path
   style="fill:none;stroke:#000000;stroke-width:18;stroke-linejoin:round"
   inkscape:connector-curvature="0"
   id="path350"
   d="m 5097,1885 -4,-1 h -4 l -4,-1 h -4 l -3,-1 -3,-2 -3,-1 -3,-2 -2,-2 -3,-2 -2,-2 -2,-3 -1,-3 -2,-3 -1,-3 -1,-4 -2,-5 -1,-5 -1,-6 -1,-6 -1,-7 v -8 -16 l 6,-164 6,-88 1,-41 1,-37 4,-247 3,-245 v -4 -4 l -1,-10 -1,-11 -2,-13 -5,-39 v -8 -8 l 1,-8 1,-8 1,-7 1,-6 2,-6 2,-5 2,-2 1,-3 1,-2 2,-2 2,-1 1,-2 2,-2 3,-1 2,-1 2,-1 3,-1 3,-1 3,-1 3,-1 h 6 l 7,-1 10,1 11,1 11,2 10,2 12,3 11,4 12,5 12,6 11,6 11,6 10,7 9,7 8,8 8,8 7,8 6,9 10,19 9,20 8,22 6,22 5,24 4,25 2,27 1,27 -1,40 -3,37 -2,17 -2,16 -3,16 -3,14 -4,14 -5,14 -5,14 -5,13 -7,13 -7,13 -7,12 -9,12 10,11 10,11 8,12 8,12 6,13 6,14 5,15 4,15 4,17 3,17 4,37 3,42 1,45 -1,23 -1,23 -3,21 -3,21 -5,20 -6,20 -6,19 -8,17 -10,19 -11,18 -12,16 -13,14 -14,13 -15,11 -16,10 -17,8 -11,4 -11,3 -11,2 -11,3 -11,1 -11,2 h -10 z" />
         <path
   style="fill:none;stroke:#000000;stroke-width:18;stroke-linejoin:round"
   inkscape:connector-curvature="0"
   id="path352"
   d="m 5146,1290 10,-1 5,-1 4,-1 5,-2 4,-2 4,-2 4,-3 7,-7 7,-8 6,-10 5,-11 5,-12 4,-14 3,-15 3,-17 4,-38 1,-44 -1,-47 -3,-41 -5,-35 -3,-15 -4,-14 -4,-13 -5,-10 -5,-10 -6,-8 -6,-6 -3,-3 -4,-2 -3,-2 -4,-1 -4,-1 -4,-1 -2,5 -2,5 -3,14 -3,16 -2,20 -4,47 -1,60 z" />
         <path
   style="fill:none;stroke:#000000;stroke-width:18;stroke-linejoin:round"
   inkscape:connector-curvature="0"
   id="path354"
   d="m 5137,1805 6,-1 6,-2 6,-2 6,-2 5,-3 5,-3 5,-3 5,-4 5,-4 5,-4 4,-4 4,-5 8,-10 8,-12 6,-12 6,-13 5,-13 4,-13 3,-14 2,-15 1,-14 1,-16 -1,-31 -1,-30 -3,-28 -3,-26 -4,-18 -3,-17 -5,-15 -2,-7 -2,-7 -3,-6 -3,-7 -3,-6 -3,-6 -4,-6 -4,-5 -3,-6 -5,-5 -4,-6 -5,-5 -5,-4 -6,-4 -5,-3 -6,-3 -6,-2 -6,-1 -3,47 -2,55 -1,132 -1,7 v 12 l -2,40 -4,53 1,1 v 0 1 0 1 0 0 1 h 1 v 0 0 0 4 z" />
        </g>
       </g>
       <g
   id="g368"
   class="com.sun.star.drawing.PolyPolygonShape"
   transform="translate(-105.83334,-158.75001)">
        <g
   id="id10">
         <rect
   style="fill:none;stroke:none"
   id="rect359"
   height="1200"
   width="442"
   y="683"
   x="5707"
   class="BoundingBox" />
         <path
   style="fill:#000000;stroke:none"
   inkscape:connector-curvature="0"
   id="path361"
   d="m 5817,1872 h -7 l -8,-1 -7,-1 -7,-1 -6,-2 -6,-3 -7,-3 -5,-3 -3,-2 -3,-2 -2,-1 -2,-3 -2,-2 -2,-2 -2,-2 -1,-3 -1,-2 -2,-3 -1,-2 v -3 l -1,-3 v -3 l -1,-3 v -3 l 4,-4 4,-6 4,-6 3,-8 3,-8 3,-9 5,-21 4,-25 2,-28 2,-31 v -35 l -1,-50 -2,-59 -11,-149 -11,-144 -3,-60 -1,-50 3,-86 2,-85 -1,-11 v -12 l -3,-26 -5,-29 -7,-32 -8,-33 -6,-27 -2,-11 -1,-11 -1,-8 -1,-8 1,-7 1,-6 1,-3 2,-3 1,-2 2,-3 4,-5 5,-4 6,-4 7,-4 8,-3 9,-3 10,-2 11,-2 24,-3 h 28 23 21 l 20,3 19,4 19,5 17,8 18,8 16,11 16,12 12,11 12,13 11,14 11,15 10,16 10,18 9,19 9,20 6,14 5,16 11,36 9,42 9,47 7,77 2,32 1,27 v 50 73 l -1,1 -1,2 v 2 l -1,1 v 2 1 l -1,2 v 1 l 1,6 v 5 2 2 l 1,2 v 2 2 l 1,1 v 2 2 4 l 1,4 -1,13 v 14 l -3,28 -5,31 -6,33 -8,35 -10,35 -12,35 -13,36 -18,41 -18,38 -19,35 -19,32 -20,28 -20,26 -21,22 -22,20 -13,9 -13,8 -13,7 -13,6 -13,4 -14,4 -14,1 z m 33,-90 14,-9 14,-11 13,-11 13,-13 12,-13 12,-14 12,-16 11,-16 10,-17 10,-18 9,-18 9,-18 8,-19 8,-20 6,-20 6,-20 10,-38 9,-38 7,-38 6,-39 4,-38 4,-39 2,-38 v -39 l -1,-43 -2,-45 -5,-47 -7,-48 -5,-24 -6,-23 -7,-23 -9,-22 -10,-21 -11,-21 -12,-20 -13,-20 -7,-9 -7,-9 -8,-8 -8,-7 -9,-7 -9,-7 -9,-6 -10,-5 -10,-5 -11,-5 -11,-3 -11,-3 -11,-2 -12,-2 -13,-1 h -12 v 1 l 1,79 3,97 14,246 14,247 4,98 1,81 z" />
         <path
   style="fill:none;stroke:#000000;stroke-width:18;stroke-linejoin:round"
   inkscape:connector-curvature="0"
   id="path363"
   d="m 5817,1872 h -7 l -8,-1 -7,-1 -7,-1 -6,-2 -6,-3 -7,-3 -5,-3 -3,-2 -3,-2 -2,-1 -2,-3 -2,-2 -2,-2 -2,-2 -1,-3 -1,-2 -2,-3 -1,-2 v -3 l -1,-3 v -3 l -1,-3 v -3 l 4,-4 4,-6 4,-6 3,-8 3,-8 3,-9 5,-21 4,-25 2,-28 2,-31 v -35 l -1,-50 -2,-59 -11,-149 -11,-144 -3,-60 -1,-50 3,-86 2,-85 -1,-11 v -12 l -3,-26 -5,-29 -7,-32 -8,-33 -6,-27 -2,-11 -1,-11 -1,-8 -1,-8 1,-7 1,-6 1,-3 2,-3 1,-2 2,-3 4,-5 5,-4 6,-4 7,-4 8,-3 9,-3 10,-2 11,-2 24,-3 h 28 23 21 l 20,3 19,4 19,5 17,8 18,8 16,11 16,12 12,11 12,13 11,14 11,15 10,16 10,18 9,19 9,20 6,14 5,16 11,36 9,42 9,47 7,77 2,32 1,27 v 50 73 l -1,1 -1,2 v 2 l -1,1 v 2 1 l -1,2 v 1 l 1,6 v 5 2 2 l 1,2 v 2 2 l 1,1 v 2 2 4 l 1,4 -1,13 v 14 l -3,28 -5,31 -6,33 -8,35 -10,35 -12,35 -13,36 -18,41 -18,38 -19,35 -19,32 -20,28 -20,26 -21,22 -22,20 -13,9 -13,8 -13,7 -13,6 -13,4 -14,4 -14,1 z" />
         <path
   style="fill:none;stroke:#000000;stroke-width:18;stroke-linejoin:round"
   inkscape:connector-curvature="0"
   id="path365"
   d="m 5850,1782 14,-9 14,-11 13,-11 13,-13 12,-13 12,-14 12,-16 11,-16 10,-17 10,-18 9,-18 9,-18 8,-19 8,-20 6,-20 6,-20 10,-38 9,-38 7,-38 6,-39 4,-38 4,-39 2,-38 v -39 l -1,-43 -2,-45 -5,-47 -7,-48 -5,-24 -6,-23 -7,-23 -9,-22 -10,-21 -11,-21 -12,-20 -13,-20 -7,-9 -7,-9 -8,-8 -8,-7 -9,-7 -9,-7 -9,-6 -10,-5 -10,-5 -11,-5 -11,-3 -11,-3 -11,-2 -12,-2 -13,-1 h -12 v 1 l 1,79 3,97 14,246 14,247 4,98 1,81 z" />
        </g>
       </g>
       <g
   id="g377"
   class="com.sun.star.drawing.PolyPolygonShape"
   transform="translate(-105.83334,-158.75001)">
        <g
   id="id11">
         <rect
   style="fill:none;stroke:none"
   id="rect370"
   height="1052"
   width="299"
   y="826"
   x="6241"
   class="BoundingBox" />
         <path
   style="fill:#000000;stroke:none"
   inkscape:connector-curvature="0"
   id="path372"
   d="m 6385,1867 h -31 l -28,-2 -23,-4 -10,-2 -9,-3 -8,-3 -7,-4 -6,-4 -4,-4 -2,-2 -2,-2 -1,-3 -2,-2 -1,-3 v -2 l -1,-3 v -3 -5 l 1,-4 1,-4 1,-3 2,-4 2,-3 2,-3 3,-2 3,-2 4,-2 4,-2 4,-1 5,-1 5,-1 h 6 5 17 l 16,1 h 3 3 l 1,-1 h 1 1 l 1,-1 h 1 l 1,-1 h 1 l 1,-1 1,-1 1,-1 v -1 l 1,-1 1,-1 v -1 l 1,-1 v -1 l 1,-3 1,-3 v -4 -4 l 1,-5 v -5 l -3,-82 -3,-22 -2,-30 -6,-81 -14,-359 1,-79 2,-79 v -25 l -1,-22 -2,-20 -2,-18 -11,2 -10,2 -4,1 h -4 l -4,1 h -3 -4 l -4,-1 -4,-1 -4,-1 -3,-1 -3,-1 -3,-2 -2,-3 -3,-2 -2,-3 -1,-3 -1,-3 -1,-4 -1,-4 -1,-4 v -4 -3 l 1,-2 v -2 l 1,-2 1,-3 1,-2 1,-2 1,-2 2,-2 1,-2 2,-2 2,-2 5,-3 6,-4 6,-3 6,-4 7,-2 7,-3 7,-2 8,-3 9,-2 9,-1 30,-6 28,-4 27,-2 25,-1 4,1 h 5 l 2,1 h 2 l 2,1 2,1 2,1 2,1 2,1 2,1 3,2 4,4 3,3 2,3 3,4 1,2 v 2 l 1,2 1,2 v 2 l 1,2 v 2 2 l 1,4 v 4 l -1,4 -1,4 -1,4 -1,3 -2,4 -2,3 -2,3 -3,3 -1,2 -2,1 -1,1 -2,1 -1,1 -2,1 h -1 l -2,1 -2,1 h -2 -1 l -2,1 h -2 -2 -4 l -5,-1 h -1 -2 -2 l -2,-1 h -12 -4 l -3,1 h -3 l -3,1 h -2 l -1,1 h -1 l -1,1 -2,1 -1,1 h -1 v 1 l -1,1 -1,1 -1,1 v 1 l -1,2 -1,1 v 1 l -1,2 v 3 l -1,4 v 4 5 l 1,85 3,103 14,265 13,164 3,36 2,37 2,36 v 37 59 h 3 3 l 7,-1 h 8 10 8 l 8,1 7,1 6,1 6,2 5,2 5,3 4,3 4,4 3,4 3,4 3,5 1,6 2,5 v 7 l 1,6 v 9 l -39,27 h -1 -2 l -7,1 h -5 -8 -19 l -41,3 h -14 z" />
         <path
   style="fill:none;stroke:#000000;stroke-width:18;stroke-linejoin:round"
   inkscape:connector-curvature="0"
   id="path374"
   d="m 6385,1867 h -31 l -28,-2 -23,-4 -10,-2 -9,-3 -8,-3 -7,-4 -6,-4 -4,-4 -2,-2 -2,-2 -1,-3 -2,-2 -1,-3 v -2 l -1,-3 v -3 -5 l 1,-4 1,-4 1,-3 2,-4 2,-3 2,-3 3,-2 3,-2 4,-2 4,-2 4,-1 5,-1 5,-1 h 6 5 17 l 16,1 h 3 3 l 1,-1 h 1 1 l 1,-1 h 1 l 1,-1 h 1 l 1,-1 1,-1 1,-1 v -1 l 1,-1 1,-1 v -1 l 1,-1 v -1 l 1,-3 1,-3 v -4 -4 l 1,-5 v -5 l -3,-82 -3,-22 -2,-30 -6,-81 -14,-359 1,-79 2,-79 v -25 l -1,-22 -2,-20 -2,-18 -11,2 -10,2 -4,1 h -4 l -4,1 h -3 -4 l -4,-1 -4,-1 -4,-1 -3,-1 -3,-1 -3,-2 -2,-3 -3,-2 -2,-3 -1,-3 -1,-3 -1,-4 -1,-4 -1,-4 v -4 -3 l 1,-2 v -2 l 1,-2 1,-3 1,-2 1,-2 1,-2 2,-2 1,-2 2,-2 2,-2 5,-3 6,-4 6,-3 6,-4 7,-2 7,-3 7,-2 8,-3 9,-2 9,-1 30,-6 28,-4 27,-2 25,-1 4,1 h 5 l 2,1 h 2 l 2,1 2,1 2,1 2,1 2,1 2,1 3,2 4,4 3,3 2,3 3,4 1,2 v 2 l 1,2 1,2 v 2 l 1,2 v 2 2 l 1,4 v 4 l -1,4 -1,4 -1,4 -1,3 -2,4 -2,3 -2,3 -3,3 -1,2 -2,1 -1,1 -2,1 -1,1 -2,1 h -1 l -2,1 -2,1 h -2 -1 l -2,1 h -2 -2 -4 l -5,-1 h -1 -2 -2 l -2,-1 h -12 -4 l -3,1 h -3 l -3,1 h -2 l -1,1 h -1 l -1,1 -2,1 -1,1 h -1 v 1 l -1,1 -1,1 -1,1 v 1 l -1,2 -1,1 v 1 l -1,2 v 3 l -1,4 v 4 5 l 1,85 3,103 14,265 13,164 3,36 2,37 2,36 v 37 59 h 3 3 l 7,-1 h 8 10 8 l 8,1 7,1 6,1 6,2 5,2 5,3 4,3 4,4 3,4 3,4 3,5 1,6 2,5 v 7 l 1,6 v 9 l -39,27 h -1 -2 l -7,1 h -5 -8 -19 l -41,3 h -14 z" />
        </g>
       </g>
       <g
   id="g388"
   class="com.sun.star.drawing.PolyPolygonShape"
   transform="translate(-105.83334,-158.75001)">
        <g
   id="id12">
         <rect
   style="fill:none;stroke:none"
   id="rect379"
   height="1073"
   width="427"
   y="820"
   x="6554"
   class="BoundingBox" />
         <path
   style="fill:#000000;stroke:none"
   inkscape:connector-curvature="0"
   id="path381"
   d="m 6945,1883 h -8 l -8,-1 -8,-1 -7,-1 -6,-1 -6,-2 -5,-2 -2,-2 -2,-1 -2,-1 -2,-2 -2,-2 -2,-1 -1,-3 -2,-2 -1,-2 -1,-2 -1,-3 -1,-3 -1,-3 v -3 l -1,-6 v -7 l -1,-28 -3,-35 -5,-44 -7,-52 -6,-32 -154,-23 -5,22 -6,32 -15,90 -3,18 -3,17 -3,15 -3,13 -4,12 -4,10 -2,5 -3,4 -2,3 -3,4 -1,1 -2,2 -1,2 -2,1 -1,1 -2,1 -2,1 -2,1 -2,1 -2,1 h -2 l -2,1 h -2 l -3,1 h -5 -4 l -5,-1 -4,-1 -5,-1 -4,-2 -4,-2 -4,-2 -4,-3 -3,-3 -2,-1 -2,-2 -1,-2 -1,-1 -1,-2 -1,-2 -1,-2 -1,-2 -1,-1 v -2 l -1,-2 v -2 -2 -3 l 3,-7 1,-7 48,-198 42,-198 36,-196 29,-194 1,-4 v -5 l 1,-12 3,-43 5,-52 3,-21 2,-19 2,-8 1,-8 2,-7 2,-6 3,-7 2,-5 3,-5 3,-5 h 53 5 l 5,1 5,1 5,1 5,1 4,2 4,2 4,2 2,2 2,1 1,1 2,2 1,1 2,2 1,2 1,1 1,2 v 2 l 1,2 1,2 v 2 2 l 1,3 v 2 l 2,66 6,81 10,94 14,110 23,203 6,75 2,57 v 3 l 1,3 1,11 6,31 3,16 3,14 1,10 1,4 v 3 3 l 1,7 3,18 11,65 6,34 5,27 2,21 1,8 v 6 2 8 l -1,3 v 4 l -1,3 -1,4 -2,3 -1,2 -2,3 -1,2 -2,3 -3,2 -2,2 -3,1 -3,2 z m -102,-298 -1,-6 -1,-6 -2,-14 v -15 l -1,-16 -1,-75 -5,-85 -8,-94 -11,-103 -15,-162 -92,551 4,2 4,2 4,2 6,2 13,3 15,3 40,6 z" />
         <path
   style="fill:none;stroke:#000000;stroke-width:18;stroke-linejoin:round"
   inkscape:connector-curvature="0"
   id="path383"
   d="m 6945,1883 h -8 l -8,-1 -8,-1 -7,-1 -6,-1 -6,-2 -5,-2 -2,-2 -2,-1 -2,-1 -2,-2 -2,-2 -2,-1 -1,-3 -2,-2 -1,-2 -1,-2 -1,-3 -1,-3 -1,-3 v -3 l -1,-6 v -7 l -1,-28 -3,-35 -5,-44 -7,-52 -6,-32 -154,-23 -5,22 -6,32 -15,90 -3,18 -3,17 -3,15 -3,13 -4,12 -4,10 -2,5 -3,4 -2,3 -3,4 -1,1 -2,2 -1,2 -2,1 -1,1 -2,1 -2,1 -2,1 -2,1 -2,1 h -2 l -2,1 h -2 l -3,1 h -5 -4 l -5,-1 -4,-1 -5,-1 -4,-2 -4,-2 -4,-2 -4,-3 -3,-3 -2,-1 -2,-2 -1,-2 -1,-1 -1,-2 -1,-2 -1,-2 -1,-2 -1,-1 v -2 l -1,-2 v -2 -2 -3 l 3,-7 1,-7 48,-198 42,-198 36,-196 29,-194 1,-4 v -5 l 1,-12 3,-43 5,-52 3,-21 2,-19 2,-8 1,-8 2,-7 2,-6 3,-7 2,-5 3,-5 3,-5 h 53 5 l 5,1 5,1 5,1 5,1 4,2 4,2 4,2 2,2 2,1 1,1 2,2 1,1 2,2 1,2 1,1 1,2 v 2 l 1,2 1,2 v 2 2 l 1,3 v 2 l 2,66 6,81 10,94 14,110 23,203 6,75 2,57 v 3 l 1,3 1,11 6,31 3,16 3,14 1,10 1,4 v 3 3 l 1,7 3,18 11,65 6,34 5,27 2,21 1,8 v 6 2 8 l -1,3 v 4 l -1,3 -1,4 -2,3 -1,2 -2,3 -1,2 -2,3 -3,2 -2,2 -3,1 -3,2 z" />
         <path
   style="fill:none;stroke:#000000;stroke-width:18;stroke-linejoin:round"
   inkscape:connector-curvature="0"
   id="path385"
   d="m 6843,1585 -1,-6 -1,-6 -2,-14 v -15 l -1,-16 -1,-75 -5,-85 -8,-94 -11,-103 -15,-162 -92,551 4,2 4,2 4,2 6,2 13,3 15,3 40,6 z" />
        </g>
       </g>
       <g
   id="g399"
   class="com.sun.star.drawing.PolyPolygonShape"
   transform="translate(-105.83334,-158.75001)">
        <g
   id="id13">
         <rect
   style="fill:none;stroke:none"
   id="rect390"
   height="1082"
   width="329"
   y="824"
   x="7073"
   class="BoundingBox" />
         <path
   style="fill:#000000;stroke:none"
   inkscape:connector-curvature="0"
   id="path392"
   d="m 7357,1895 h -4 l -4,-1 -4,-1 -4,-2 -4,-3 -4,-3 -4,-4 -4,-4 -4,-5 -4,-6 -7,-13 -8,-15 -7,-17 -15,-41 -13,-41 -11,-42 -9,-42 -11,-53 -37,-174 -12,-51 -5,-17 -3,-11 h -19 l -1,82 v 86 l 1,98 6,87 4,39 5,36 6,34 7,30 -17,42 h -43 l -21,-23 2,-104 -14,-424 -12,-424 v -17 l 1,-8 2,-7 2,-7 2,-6 2,-6 3,-5 4,-4 4,-4 4,-3 4,-3 5,-2 6,-1 6,-1 h 6 20 l 20,3 18,3 18,5 17,6 15,7 15,9 14,10 7,6 6,6 5,6 6,6 4,7 5,7 4,7 3,7 3,8 3,8 2,8 2,9 3,17 1,19 v 109 6 l -1,6 v 6 l -1,7 -3,14 -3,15 -4,14 -4,13 -5,11 -2,6 -2,4 -30,56 -24,47 7,37 22,110 21,109 11,45 10,40 11,37 11,34 13,33 15,31 9,19 4,7 3,8 2,6 3,7 1,6 1,5 1,6 v 5 3 4 l -1,4 -1,3 -1,3 -2,4 -2,3 -2,3 -1,1 -1,1 -2,2 -1,1 -1,1 -2,1 -1,1 h -2 l -1,1 -2,1 h -2 l -1,1 h -2 -2 z m -191,-622 5,-2 4,-3 4,-3 4,-4 4,-4 4,-5 3,-5 4,-6 7,-13 7,-14 6,-17 7,-18 5,-19 5,-19 4,-18 4,-18 2,-17 2,-18 1,-16 1,-17 -1,-12 v -12 l -1,-12 -1,-12 -2,-12 -2,-11 -3,-11 -3,-11 -2,-6 -2,-6 -3,-5 -3,-5 -3,-4 -4,-5 -4,-4 -4,-3 -5,-3 -5,-3 -5,-2 -5,-2 -6,-1 -6,-1 -6,-1 h -7 l -3,8 -3,14 3,183 z" />
         <path
   style="fill:none;stroke:#000000;stroke-width:18;stroke-linejoin:round"
   inkscape:connector-curvature="0"
   id="path394"
   d="m 7357,1895 h -4 l -4,-1 -4,-1 -4,-2 -4,-3 -4,-3 -4,-4 -4,-4 -4,-5 -4,-6 -7,-13 -8,-15 -7,-17 -15,-41 -13,-41 -11,-42 -9,-42 -11,-53 -37,-174 -12,-51 -5,-17 -3,-11 h -19 l -1,82 v 86 l 1,98 6,87 4,39 5,36 6,34 7,30 -17,42 h -43 l -21,-23 2,-104 -14,-424 -12,-424 v -17 l 1,-8 2,-7 2,-7 2,-6 2,-6 3,-5 4,-4 4,-4 4,-3 4,-3 5,-2 6,-1 6,-1 h 6 20 l 20,3 18,3 18,5 17,6 15,7 15,9 14,10 7,6 6,6 5,6 6,6 4,7 5,7 4,7 3,7 3,8 3,8 2,8 2,9 3,17 1,19 v 109 6 l -1,6 v 6 l -1,7 -3,14 -3,15 -4,14 -4,13 -5,11 -2,6 -2,4 -30,56 -24,47 7,37 22,110 21,109 11,45 10,40 11,37 11,34 13,33 15,31 9,19 4,7 3,8 2,6 3,7 1,6 1,5 1,6 v 5 3 4 l -1,4 -1,3 -1,3 -2,4 -2,3 -2,3 -1,1 -1,1 -2,2 -1,1 -1,1 -2,1 -1,1 h -2 l -1,1 -2,1 h -2 l -1,1 h -2 -2 z" />
         <path
   style="fill:none;stroke:#000000;stroke-width:18;stroke-linejoin:round"
   inkscape:connector-curvature="0"
   id="path396"
   d="m 7166,1273 5,-2 4,-3 4,-3 4,-4 4,-4 4,-5 3,-5 4,-6 7,-13 7,-14 6,-17 7,-18 5,-19 5,-19 4,-18 4,-18 2,-17 2,-18 1,-16 1,-17 -1,-12 v -12 l -1,-12 -1,-12 -2,-12 -2,-11 -3,-11 -3,-11 -2,-6 -2,-6 -3,-5 -3,-5 -3,-4 -4,-5 -4,-4 -4,-3 -5,-3 -5,-3 -5,-2 -5,-2 -6,-1 -6,-1 -6,-1 h -7 l -3,8 -3,14 3,183 z" />
        </g>
       </g>
       <g
   id="g408"
   class="com.sun.star.drawing.PolyPolygonShape"
   transform="translate(-105.83334,-158.75001)">
        <g
   id="id14">
         <rect
   style="fill:none;stroke:none"
   id="rect401"
   height="1074"
   width="357"
   y="827"
   x="7445"
   class="BoundingBox" />
         <path
   style="fill:#000000;stroke:none"
   inkscape:connector-curvature="0"
   id="path403"
   d="m 7650,1891 h -3 l -4,-1 h -3 l -3,-1 -3,-2 -3,-1 -2,-2 -3,-2 -3,-2 -2,-3 -3,-2 -2,-3 -5,-7 -5,-8 3,-5 1,-7 4,-17 3,-24 2,-30 3,-78 2,-103 -1,-28 -1,-29 -3,-30 -3,-31 -5,-45 -3,-37 -1,-15 -1,-12 v -40 l -56,-145 -66,-176 -13,-38 -9,-32 -3,-13 -3,-11 -1,-10 -1,-4 v -4 -8 l 36,-26 h 3 l 4,1 3,2 3,2 4,3 3,3 4,3 3,4 7,10 7,11 8,14 7,15 13,32 13,38 14,44 15,50 23,82 5,22 2,7 v 2 1 l 2,-6 2,-8 6,-24 15,-79 10,-48 10,-45 11,-43 11,-39 7,-18 6,-15 7,-13 3,-6 4,-5 3,-5 4,-3 3,-4 3,-2 4,-2 3,-2 h 2 l 2,-1 h 2 1 4 l 4,1 h 3 l 4,1 3,2 3,1 4,2 3,2 2,3 1,1 2,1 1,2 1,1 v 1 l 1,2 1,1 1,2 v 1 2 l 1,1 v 2 2 2 l -1,20 -2,23 -3,25 -5,27 -13,60 -19,68 -21,73 -14,62 -5,27 -4,24 -2,22 -1,19 v 467 l -1,24 -2,21 -2,10 -2,8 -3,8 -3,7 -3,6 -4,5 -4,5 -5,3 -5,3 -5,2 -6,1 z" />
         <path
   style="fill:none;stroke:#000000;stroke-width:18;stroke-linejoin:round"
   inkscape:connector-curvature="0"
   id="path405"
   d="m 7650,1891 h -3 l -4,-1 h -3 l -3,-1 -3,-2 -3,-1 -2,-2 -3,-2 -3,-2 -2,-3 -3,-2 -2,-3 -5,-7 -5,-8 3,-5 1,-7 4,-17 3,-24 2,-30 3,-78 2,-103 -1,-28 -1,-29 -3,-30 -3,-31 -5,-45 -3,-37 -1,-15 -1,-12 v -40 l -56,-145 -66,-176 -13,-38 -9,-32 -3,-13 -3,-11 -1,-10 -1,-4 v -4 -8 l 36,-26 h 3 l 4,1 3,2 3,2 4,3 3,3 4,3 3,4 7,10 7,11 8,14 7,15 13,32 13,38 14,44 15,50 23,82 5,22 2,7 v 2 1 l 2,-6 2,-8 6,-24 15,-79 10,-48 10,-45 11,-43 11,-39 7,-18 6,-15 7,-13 3,-6 4,-5 3,-5 4,-3 3,-4 3,-2 4,-2 3,-2 h 2 l 2,-1 h 2 1 4 l 4,1 h 3 l 4,1 3,2 3,1 4,2 3,2 2,3 1,1 2,1 1,2 1,1 v 1 l 1,2 1,1 1,2 v 1 2 l 1,1 v 2 2 2 l -1,20 -2,23 -3,25 -5,27 -13,60 -19,68 -21,73 -14,62 -5,27 -4,24 -2,22 -1,19 v 467 l -1,24 -2,21 -2,10 -2,8 -3,8 -3,7 -3,6 -4,5 -4,5 -5,3 -5,3 -5,2 -6,1 z" />
        </g>
       </g>
      </g>
</svg>