<?xml version="1.0" encoding="UTF-8"?>
<!DOCTYPE svg PUBLIC "-//W3C//DTD SVG 1.1//EN" "http://www.w3.org/Graphics/SVG/1.1/DTD/svg11.dtd">
<svg version="1.2" width="81.28mm" height="25.4mm" viewBox="0 0 8128 2540" preserveAspectRatio="xMidYMid" fill-rule="evenodd" stroke-width="28.222" stroke-linejoin="round" xmlns="http://www.w3.org/2000/svg" xmlns:ooo="http://xml.openoffice.org/svg/export" xmlns:xlink="http://www.w3.org/1999/xlink" xmlns:presentation="http://sun.com/xmlns/staroffice/presentation" xmlns:smil="http://www.w3.org/2001/SMIL20/" xmlns:anim="urn:oasis:names:tc:opendocument:xmlns:animation:1.0" xml:space="preserve">
 <defs class="ClipPathGroup">
  <clipPath id="presentation_clip_path" clipPathUnits="userSpaceOnUse">
   <rect x="0" y="0" width="8128" height="2540"/>
  </clipPath>
  <clipPath id="presentation_clip_path_shrink" clipPathUnits="userSpaceOnUse">
   <rect x="8" y="2" width="8112" height="2535"/>
  </clipPath>
 </defs>
 <defs class="TextShapeIndex">
  <g ooo:slide="id1" ooo:id-list="id3 id4 id5 id6 id7 id8 id9 id10 id11 id12 id13 id14"/>
 </defs>
 <defs class="EmbeddedBulletChars">
  <g id="bullet-char-template-57356" transform="scale(0.00048828125,-0.00048828125)">
   <path d="M 580,1141 L 1163,571 580,0 -4,571 580,1141 Z"/>
  </g>
  <g id="bullet-char-template-57354" transform="scale(0.00048828125,-0.00048828125)">
   <path d="M 8,1128 L 1137,1128 1137,0 8,0 8,1128 Z"/>
  </g>
  <g id="bullet-char-template-10146" transform="scale(0.00048828125,-0.00048828125)">
   <path d="M 174,0 L 602,739 174,1481 1456,739 174,0 Z M 1358,739 L 309,1346 659,739 1358,739 Z"/>
  </g>
  <g id="bullet-char-template-10132" transform="scale(0.00048828125,-0.00048828125)">
   <path d="M 2015,739 L 1276,0 717,0 1260,543 174,543 174,936 1260,936 717,1481 1274,1481 2015,739 Z"/>
  </g>
  <g id="bullet-char-template-10007" transform="scale(0.00048828125,-0.00048828125)">
   <path d="M 0,-2 C -7,14 -16,27 -25,37 L 356,567 C 262,823 215,952 215,954 215,979 228,992 255,992 264,992 276,990 289,987 310,991 331,999 354,1012 L 381,999 492,748 772,1049 836,1024 860,1049 C 881,1039 901,1025 922,1006 886,937 835,863 770,784 769,783 710,716 594,584 L 774,223 C 774,196 753,168 711,139 L 727,119 C 717,90 699,76 672,76 641,76 570,178 457,381 L 164,-76 C 142,-110 111,-127 72,-127 30,-127 9,-110 8,-76 1,-67 -2,-52 -2,-32 -2,-23 -1,-13 0,-2 Z"/>
  </g>
  <g id="bullet-char-template-10004" transform="scale(0.00048828125,-0.00048828125)">
   <path d="M 285,-33 C 182,-33 111,30 74,156 52,228 41,333 41,471 41,549 55,616 82,672 116,743 169,778 240,778 293,778 328,747 346,684 L 369,508 C 377,444 397,411 428,410 L 1163,1116 C 1174,1127 1196,1133 1229,1133 1271,1133 1292,1118 1292,1087 L 1292,965 C 1292,929 1282,901 1262,881 L 442,47 C 390,-6 338,-33 285,-33 Z"/>
  </g>
  <g id="bullet-char-template-9679" transform="scale(0.00048828125,-0.00048828125)">
   <path d="M 813,0 C 632,0 489,54 383,161 276,268 223,411 223,592 223,773 276,916 383,1023 489,1130 632,1184 813,1184 992,1184 1136,1130 1245,1023 1353,916 1407,772 1407,592 1407,412 1353,268 1245,161 1136,54 992,0 813,0 Z"/>
  </g>
  <g id="bullet-char-template-8226" transform="scale(0.00048828125,-0.00048828125)">
   <path d="M 346,457 C 273,457 209,483 155,535 101,586 74,649 74,723 74,796 101,859 155,911 209,963 273,989 346,989 419,989 480,963 531,910 582,859 608,796 608,723 608,648 583,586 532,535 482,483 420,457 346,457 Z"/>
  </g>
  <g id="bullet-char-template-8211" transform="scale(0.00048828125,-0.00048828125)">
   <path d="M -4,459 L 1135,459 1135,606 -4,606 -4,459 Z"/>
  </g>
  <g id="bullet-char-template-61548" transform="scale(0.00048828125,-0.00048828125)">
   <path d="M 173,740 C 173,903 231,1043 346,1159 462,1274 601,1332 765,1332 928,1332 1067,1274 1183,1159 1299,1043 1357,903 1357,740 1357,577 1299,437 1183,322 1067,206 928,148 765,148 601,148 462,206 346,322 231,437 173,577 173,740 Z"/>
  </g>
 </defs>
 <defs class="TextEmbeddedBitmaps"/>
 <g>
  <g id="id2" class="Master_Slide">
   <g id="bg-id2" class="Background"/>
   <g id="bo-id2" class="BackgroundObjects"/>
  </g>
 </g>
 <g class="SlideGroup">
  <g>
   <g id="container-id1">
    <g id="id1" class="Slide" clip-path="url(#presentation_clip_path)">
     <g class="Page">
      <g class="Graphic">
       <g id="id3">
        <rect class="BoundingBox" stroke="none" fill="none" x="-153" y="0" width="2541" height="2541"/>
        <path fill="rgb(0,0,0)" stroke="none" d="M 1035,1020 L 1492,426 2003,1271 1521,2113 1035,1020 1035,1020 Z"/>
        <path fill="rgb(0,0,0)" stroke="none" d="M 262,1038 L 1006,1037 1486,2123 629,1886 262,1038 262,1038 Z"/>
       </g>
      </g>
      <g class="Group">
       <g class="com.sun.star.drawing.PolyPolygonShape">
        <g id="id4">
         <rect class="BoundingBox" stroke="none" fill="none" x="2380" y="674" width="448" height="1230"/>
         <path fill="rgb(0,0,0)" stroke="none" d="M 2628,1894 L 2618,1894 2607,1893 2597,1891 2587,1889 2577,1886 2567,1882 2558,1878 2548,1874 2539,1868 2531,1863 2522,1857 2514,1850 2507,1843 2499,1836 2492,1828 2486,1819 2480,1811 2474,1802 2469,1792 2463,1782 2453,1760 2444,1736 2435,1711 2427,1685 2421,1658 2416,1632 2407,1582 2400,1526 2395,1462 2391,1391 2389,1268 2389,1171 2391,1084 2392,1040 2394,1002 2397,968 2399,953 2402,939 2400,928 2398,916 2397,904 2397,891 2398,869 2400,858 2401,847 2404,837 2407,826 2410,817 2415,807 2419,798 2424,789 2430,780 2436,772 2443,763 2451,756 2458,748 2467,741 2485,727 2504,716 2525,706 2546,698 2569,691 2593,687 2618,684 2644,683 2654,684 2664,685 2673,686 2683,689 2692,692 2701,695 2710,700 2718,705 2726,711 2730,714 2733,717 2736,720 2739,723 2742,726 2744,729 2746,733 2748,736 2749,740 2750,744 2751,747 2752,751 2752,755 2752,759 2752,761 2752,763 2752,765 2752,767 2751,768 2751,770 2750,772 2749,773 2749,775 2748,776 2747,778 2745,779 2744,780 2743,782 2742,783 2740,784 2737,786 2733,788 2730,790 2726,791 2722,792 2718,793 2714,793 2709,793 2705,793 2701,793 2697,793 2693,792 2684,791 2676,789 2671,788 2668,786 2664,785 2661,783 2660,782 2658,781 2657,780 2656,779 2655,778 2654,777 2654,776 2653,775 2633,775 2633,772 2619,772 2605,773 2593,775 2580,778 2568,781 2557,786 2547,791 2537,797 2533,799 2530,802 2524,808 2518,815 2512,823 2507,832 2502,842 2497,852 2493,863 2492,868 2490,872 2488,883 2486,894 2484,907 2483,920 2482,932 2481,944 2481,955 2480,963 2480,973 2479,1005 2482,1059 2484,1112 2484,1124 2482,1137 2480,1151 2478,1166 2474,1184 2472,1199 2470,1211 2470,1216 2470,1220 2470,1258 2475,1424 2476,1468 2480,1512 2487,1556 2495,1601 2499,1621 2503,1640 2509,1659 2515,1677 2522,1694 2530,1710 2538,1725 2548,1740 2552,1747 2557,1754 2562,1760 2568,1766 2573,1771 2579,1776 2585,1780 2591,1784 2598,1788 2604,1791 2611,1793 2618,1795 2626,1797 2633,1798 2641,1799 2648,1799 2652,1799 2655,1799 2659,1798 2662,1797 2670,1795 2678,1792 2686,1788 2695,1783 2704,1778 2714,1771 2733,1759 2742,1754 2749,1750 2756,1747 2763,1745 2765,1744 2768,1744 2770,1743 2773,1743 2775,1743 2778,1744 2781,1744 2784,1745 2786,1746 2789,1747 2792,1748 2795,1749 2800,1752 2806,1756 2812,1761 2818,1767 2817,1781 2816,1787 2815,1794 2813,1800 2812,1806 2809,1812 2807,1817 2804,1823 2801,1828 2797,1833 2793,1838 2789,1842 2784,1847 2779,1851 2774,1855 2764,1862 2753,1868 2742,1873 2730,1878 2718,1882 2705,1886 2692,1888 2678,1891 2650,1893 2638,1894 2628,1894 Z"/>
         <path fill="none" stroke="rgb(0,0,0)" stroke-width="18" stroke-linejoin="round" d="M 2628,1894 L 2618,1894 2607,1893 2597,1891 2587,1889 2577,1886 2567,1882 2558,1878 2548,1874 2539,1868 2531,1863 2522,1857 2514,1850 2507,1843 2499,1836 2492,1828 2486,1819 2480,1811 2474,1802 2469,1792 2463,1782 2453,1760 2444,1736 2435,1711 2427,1685 2421,1658 2416,1632 2407,1582 2400,1526 2395,1462 2391,1391 2389,1268 2389,1171 2391,1084 2392,1040 2394,1002 2397,968 2399,953 2402,939 2400,928 2398,916 2397,904 2397,891 2398,869 2400,858 2401,847 2404,837 2407,826 2410,817 2415,807 2419,798 2424,789 2430,780 2436,772 2443,763 2451,756 2458,748 2467,741 2485,727 2504,716 2525,706 2546,698 2569,691 2593,687 2618,684 2644,683 2654,684 2664,685 2673,686 2683,689 2692,692 2701,695 2710,700 2718,705 2726,711 2730,714 2733,717 2736,720 2739,723 2742,726 2744,729 2746,733 2748,736 2749,740 2750,744 2751,747 2752,751 2752,755 2752,759 2752,761 2752,763 2752,765 2752,767 2751,768 2751,770 2750,772 2749,773 2749,775 2748,776 2747,778 2745,779 2744,780 2743,782 2742,783 2740,784 2737,786 2733,788 2730,790 2726,791 2722,792 2718,793 2714,793 2709,793 2705,793 2701,793 2697,793 2693,792 2684,791 2676,789 2671,788 2668,786 2664,785 2661,783 2660,782 2658,781 2657,780 2656,779 2655,778 2654,777 2654,776 2653,775 2633,775 2633,772 2619,772 2605,773 2593,775 2580,778 2568,781 2557,786 2547,791 2537,797 2533,799 2530,802 2524,808 2518,815 2512,823 2507,832 2502,842 2497,852 2493,863 2492,868 2490,872 2488,883 2486,894 2484,907 2483,920 2482,932 2481,944 2481,955 2480,963 2480,973 2479,1005 2482,1059 2484,1112 2484,1124 2482,1137 2480,1151 2478,1166 2474,1184 2472,1199 2470,1211 2470,1216 2470,1220 2470,1258 2475,1424 2476,1468 2480,1512 2487,1556 2495,1601 2499,1621 2503,1640 2509,1659 2515,1677 2522,1694 2530,1710 2538,1725 2548,1740 2552,1747 2557,1754 2562,1760 2568,1766 2573,1771 2579,1776 2585,1780 2591,1784 2598,1788 2604,1791 2611,1793 2618,1795 2626,1797 2633,1798 2641,1799 2648,1799 2652,1799 2655,1799 2659,1798 2662,1797 2670,1795 2678,1792 2686,1788 2695,1783 2704,1778 2714,1771 2733,1759 2742,1754 2749,1750 2756,1747 2763,1745 2765,1744 2768,1744 2770,1743 2773,1743 2775,1743 2778,1744 2781,1744 2784,1745 2786,1746 2789,1747 2792,1748 2795,1749 2800,1752 2806,1756 2812,1761 2818,1767 2817,1781 2816,1787 2815,1794 2813,1800 2812,1806 2809,1812 2807,1817 2804,1823 2801,1828 2797,1833 2793,1838 2789,1842 2784,1847 2779,1851 2774,1855 2764,1862 2753,1868 2742,1873 2730,1878 2718,1882 2705,1886 2692,1888 2678,1891 2650,1893 2638,1894 2628,1894 Z"/>
        </g>
       </g>
       <g class="com.sun.star.drawing.PolyPolygonShape">
        <g id="id5">
         <rect class="BoundingBox" stroke="none" fill="none" x="2843" y="691" width="445" height="1188"/>
         <path fill="rgb(0,0,0)" stroke="none" d="M 3226,1869 L 3220,1869 3215,1868 3210,1868 3205,1867 3201,1865 3197,1864 3195,1863 3193,1862 3191,1861 3190,1860 3189,1858 3187,1857 3186,1856 3185,1854 3184,1853 3183,1851 3182,1849 3181,1847 3181,1845 3180,1843 3179,1839 3178,1834 3178,1829 3178,1625 3176,1624 3173,1622 3166,1619 3158,1615 3149,1612 3139,1609 3128,1606 3102,1601 3075,1596 3048,1592 3022,1589 2997,1587 2993,1595 2989,1604 2985,1613 2982,1623 2979,1633 2976,1643 2974,1654 2972,1666 2966,1697 2965,1704 2963,1714 2956,1745 2952,1763 2948,1780 2944,1795 2939,1809 2935,1822 2930,1833 2925,1843 2923,1848 2921,1852 2907,1851 2894,1850 2889,1849 2883,1848 2879,1846 2874,1844 2870,1842 2866,1840 2863,1837 2860,1834 2858,1831 2855,1828 2854,1825 2852,1821 2855,1817 2857,1813 2861,1802 2866,1789 2871,1772 2881,1730 2891,1675 2942,1391 3005,1046 3020,978 3035,915 3051,858 3067,807 3075,782 3084,761 3093,742 3101,727 3106,721 3110,715 3114,711 3118,707 3123,704 3127,702 3129,701 3131,701 3133,700 3135,700 3143,701 3150,701 3157,702 3164,703 3170,705 3175,707 3178,709 3180,710 3182,711 3185,713 3185,731 3186,755 3192,819 3214,1012 3237,1208 3243,1279 3245,1307 3245,1330 3246,1376 3249,1431 3262,1566 3274,1707 3277,1766 3278,1816 3277,1823 3277,1829 3276,1834 3274,1839 3273,1844 3270,1848 3268,1852 3265,1856 3261,1859 3258,1862 3253,1864 3249,1866 3244,1867 3238,1868 3233,1869 3226,1869 Z M 3146,1535 L 3149,1535 3152,1535 3156,1535 3160,1534 3168,1533 3177,1531 3161,1361 3134,1079 3128,988 3126,932 3126,919 3124,922 3121,925 3119,929 3117,934 3112,946 3107,962 3096,1004 3083,1060 3032,1327 3015,1446 3010,1487 3008,1504 3008,1517 3024,1521 3041,1525 3058,1528 3075,1531 3092,1533 3110,1534 3128,1535 3146,1535 Z"/>
         <path fill="none" stroke="rgb(0,0,0)" stroke-width="18" stroke-linejoin="round" d="M 3226,1869 L 3220,1869 3215,1868 3210,1868 3205,1867 3201,1865 3197,1864 3195,1863 3193,1862 3191,1861 3190,1860 3189,1858 3187,1857 3186,1856 3185,1854 3184,1853 3183,1851 3182,1849 3181,1847 3181,1845 3180,1843 3179,1839 3178,1834 3178,1829 3178,1625 3176,1624 3173,1622 3166,1619 3158,1615 3149,1612 3139,1609 3128,1606 3102,1601 3075,1596 3048,1592 3022,1589 2997,1587 2993,1595 2989,1604 2985,1613 2982,1623 2979,1633 2976,1643 2974,1654 2972,1666 2966,1697 2965,1704 2963,1714 2956,1745 2952,1763 2948,1780 2944,1795 2939,1809 2935,1822 2930,1833 2925,1843 2923,1848 2921,1852 2907,1851 2894,1850 2889,1849 2883,1848 2879,1846 2874,1844 2870,1842 2866,1840 2863,1837 2860,1834 2858,1831 2855,1828 2854,1825 2852,1821 2855,1817 2857,1813 2861,1802 2866,1789 2871,1772 2881,1730 2891,1675 2942,1391 3005,1046 3020,978 3035,915 3051,858 3067,807 3075,782 3084,761 3093,742 3101,727 3106,721 3110,715 3114,711 3118,707 3123,704 3127,702 3129,701 3131,701 3133,700 3135,700 3143,701 3150,701 3157,702 3164,703 3170,705 3175,707 3178,709 3180,710 3182,711 3185,713 3185,731 3186,755 3192,819 3214,1012 3237,1208 3243,1279 3245,1307 3245,1330 3246,1376 3249,1431 3262,1566 3274,1707 3277,1766 3278,1816 3277,1823 3277,1829 3276,1834 3274,1839 3273,1844 3270,1848 3268,1852 3265,1856 3261,1859 3258,1862 3253,1864 3249,1866 3244,1867 3238,1868 3233,1869 3226,1869 Z"/>
         <path fill="none" stroke="rgb(0,0,0)" stroke-width="18" stroke-linejoin="round" d="M 3146,1535 L 3149,1535 3152,1535 3156,1535 3160,1534 3168,1533 3177,1531 3161,1361 3134,1079 3128,988 3126,932 3126,919 3124,922 3121,925 3119,929 3117,934 3112,946 3107,962 3096,1004 3083,1060 3032,1327 3015,1446 3010,1487 3008,1504 3008,1517 3024,1521 3041,1525 3058,1528 3075,1531 3092,1533 3110,1534 3128,1535 3146,1535 Z"/>
        </g>
       </g>
       <g class="com.sun.star.drawing.PolyPolygonShape">
        <g id="id6">
         <rect class="BoundingBox" stroke="none" fill="none" x="3422" y="685" width="300" height="1204"/>
         <path fill="rgb(0,0,0)" stroke="none" d="M 3530,1878 L 3522,1878 3515,1878 3509,1877 3502,1876 3496,1875 3490,1874 3484,1872 3478,1871 3475,1869 3472,1868 3469,1867 3467,1865 3464,1863 3462,1861 3460,1858 3459,1856 3457,1853 3456,1850 3455,1847 3454,1843 3453,1839 3452,1836 3452,1831 3452,1827 3452,925 3452,918 3451,911 3450,892 3447,871 3443,846 3438,823 3435,802 3432,784 3432,775 3432,767 3432,762 3444,743 3455,727 3464,715 3467,710 3471,707 3482,706 3496,705 3511,703 3528,700 3544,698 3559,696 3573,695 3585,694 3592,694 3598,695 3604,696 3610,698 3616,700 3622,702 3628,705 3634,709 3639,713 3644,717 3646,719 3648,721 3649,723 3651,725 3652,727 3654,729 3655,732 3655,734 3656,736 3656,739 3657,741 3657,744 3657,749 3656,755 3654,760 3652,764 3650,768 3647,772 3643,776 3639,779 3634,781 3629,784 3623,786 3617,787 3610,789 3602,790 3585,790 3564,790 3559,790 3554,789 3548,789 3542,789 3536,789 3531,789 3529,789 3527,790 3526,790 3525,790 3525,790 3525,818 3526,849 3531,918 3534,961 3537,1046 3537,1063 3536,1084 3533,1136 3530,1223 3551,1219 3566,1215 3580,1212 3586,1211 3592,1210 3597,1210 3603,1209 3607,1210 3609,1210 3611,1210 3613,1211 3615,1211 3619,1213 3623,1215 3626,1217 3630,1220 3634,1223 3637,1226 3640,1229 3642,1233 3643,1235 3644,1237 3645,1239 3646,1241 3646,1243 3647,1245 3647,1247 3647,1249 3647,1251 3648,1253 3647,1257 3647,1262 3646,1266 3645,1271 3643,1275 3641,1279 3639,1282 3636,1286 3633,1290 3631,1291 3630,1293 3628,1294 3626,1295 3625,1296 3623,1297 3621,1298 3619,1299 3617,1300 3615,1300 3613,1300 3611,1301 3609,1301 3607,1301 3589,1299 3568,1299 3563,1300 3558,1300 3553,1301 3549,1302 3547,1303 3545,1304 3543,1305 3541,1306 3540,1307 3538,1308 3537,1309 3536,1310 3536,1790 3623,1785 3643,1786 3661,1788 3669,1789 3677,1791 3683,1793 3689,1795 3694,1798 3699,1801 3703,1804 3706,1808 3707,1810 3708,1812 3709,1814 3710,1816 3711,1821 3711,1826 3711,1832 3710,1834 3709,1836 3706,1841 3702,1845 3698,1849 3693,1852 3688,1856 3683,1859 3677,1862 3671,1865 3665,1867 3659,1870 3653,1872 3647,1873 3641,1875 3635,1876 3629,1877 3578,1878 3530,1878 Z"/>
         <path fill="none" stroke="rgb(0,0,0)" stroke-width="18" stroke-linejoin="round" d="M 3530,1878 L 3522,1878 3515,1878 3509,1877 3502,1876 3496,1875 3490,1874 3484,1872 3478,1871 3475,1869 3472,1868 3469,1867 3467,1865 3464,1863 3462,1861 3460,1858 3459,1856 3457,1853 3456,1850 3455,1847 3454,1843 3453,1839 3452,1836 3452,1831 3452,1827 3452,925 3452,918 3451,911 3450,892 3447,871 3443,846 3438,823 3435,802 3432,784 3432,775 3432,767 3432,762 3444,743 3455,727 3464,715 3467,710 3471,707 3482,706 3496,705 3511,703 3528,700 3544,698 3559,696 3573,695 3585,694 3592,694 3598,695 3604,696 3610,698 3616,700 3622,702 3628,705 3634,709 3639,713 3644,717 3646,719 3648,721 3649,723 3651,725 3652,727 3654,729 3655,732 3655,734 3656,736 3656,739 3657,741 3657,744 3657,749 3656,755 3654,760 3652,764 3650,768 3647,772 3643,776 3639,779 3634,781 3629,784 3623,786 3617,787 3610,789 3602,790 3585,790 3564,790 3559,790 3554,789 3548,789 3542,789 3536,789 3531,789 3529,789 3527,790 3526,790 3525,790 3525,790 3525,818 3526,849 3531,918 3534,961 3537,1046 3537,1063 3536,1084 3533,1136 3530,1223 3551,1219 3566,1215 3580,1212 3586,1211 3592,1210 3597,1210 3603,1209 3607,1210 3609,1210 3611,1210 3613,1211 3615,1211 3619,1213 3623,1215 3626,1217 3630,1220 3634,1223 3637,1226 3640,1229 3642,1233 3643,1235 3644,1237 3645,1239 3646,1241 3646,1243 3647,1245 3647,1247 3647,1249 3647,1251 3648,1253 3647,1257 3647,1262 3646,1266 3645,1271 3643,1275 3641,1279 3639,1282 3636,1286 3633,1290 3631,1291 3630,1293 3628,1294 3626,1295 3625,1296 3623,1297 3621,1298 3619,1299 3617,1300 3615,1300 3613,1300 3611,1301 3609,1301 3607,1301 3589,1299 3568,1299 3563,1300 3558,1300 3553,1301 3549,1302 3547,1303 3545,1304 3543,1305 3541,1306 3540,1307 3538,1308 3537,1309 3536,1310 3536,1790 3623,1785 3643,1786 3661,1788 3669,1789 3677,1791 3683,1793 3689,1795 3694,1798 3699,1801 3703,1804 3706,1808 3707,1810 3708,1812 3709,1814 3710,1816 3711,1821 3711,1826 3711,1832 3710,1834 3709,1836 3706,1841 3702,1845 3698,1849 3693,1852 3688,1856 3683,1859 3677,1862 3671,1865 3665,1867 3659,1870 3653,1872 3647,1873 3641,1875 3635,1876 3629,1877 3578,1878 3530,1878 Z"/>
        </g>
       </g>
       <g class="com.sun.star.drawing.PolyPolygonShape">
        <g id="id7">
         <rect class="BoundingBox" stroke="none" fill="none" x="4045" y="683" width="294" height="1344"/>
         <path fill="rgb(0,0,0)" stroke="none" d="M 4133,2016 L 4127,2016 4121,2016 4116,2015 4111,2013 4106,2012 4101,2009 4097,2007 4093,2004 4091,2002 4089,2001 4088,1999 4086,1997 4085,1995 4083,1993 4082,1991 4081,1989 4080,1987 4080,1984 4079,1982 4078,1979 4078,1974 4077,1968 4077,1966 4078,1964 4078,1962 4078,1960 4079,1958 4080,1955 4081,1953 4082,1951 4085,1946 4088,1942 4092,1937 4096,1933 4101,1928 4106,1924 4111,1920 4116,1916 4121,1913 4126,1910 4132,1907 4138,1905 4144,1897 4149,1888 4155,1878 4160,1867 4165,1855 4171,1842 4181,1813 4185,1798 4189,1782 4192,1766 4195,1750 4197,1734 4199,1718 4200,1702 4200,1686 4201,1610 4203,1535 4201,1472 4194,1315 4160,773 4159,774 4158,774 4157,775 4155,775 4152,776 4150,777 4146,777 4139,778 4133,780 4127,781 4121,783 4115,784 4110,785 4104,785 4098,786 4093,786 4089,786 4087,785 4085,785 4084,785 4082,784 4080,783 4078,783 4077,782 4075,781 4072,779 4069,777 4066,774 4063,771 4061,768 4059,765 4058,763 4057,761 4056,760 4056,758 4055,756 4055,754 4054,753 4054,751 4054,747 4054,744 4055,740 4056,737 4057,734 4059,731 4061,728 4063,726 4066,723 4072,718 4080,714 4089,710 4100,706 4112,703 4126,700 4158,696 4195,693 4239,693 4259,693 4269,693 4278,693 4286,694 4290,694 4293,695 4296,696 4299,697 4302,698 4305,699 4308,701 4311,702 4314,704 4316,707 4318,708 4319,709 4321,710 4322,712 4323,713 4324,715 4325,716 4326,718 4326,720 4327,722 4328,724 4328,726 4329,730 4329,734 4328,739 4328,744 4326,748 4325,752 4322,756 4320,759 4316,762 4312,765 4308,767 4303,769 4298,771 4292,772 4286,773 4279,774 4264,775 4263,775 4263,775 4263,775 4263,775 4262,775 4262,775 4262,775 4262,775 4262,774 4262,774 4262,774 4262,774 4262,774 4262,774 4262,773 4259,773 4239,773 4239,786 4239,808 4241,836 4244,868 4248,905 4254,980 4255,1007 4256,1026 4257,1086 4260,1157 4271,1327 4281,1493 4283,1565 4284,1630 4284,1692 4284,1754 4283,1777 4281,1799 4278,1821 4274,1842 4268,1862 4261,1882 4253,1901 4244,1919 4234,1937 4222,1953 4210,1967 4197,1980 4182,1991 4167,2001 4151,2009 4133,2016 Z"/>
         <path fill="none" stroke="rgb(0,0,0)" stroke-width="18" stroke-linejoin="round" d="M 4133,2016 L 4127,2016 4121,2016 4116,2015 4111,2013 4106,2012 4101,2009 4097,2007 4093,2004 4091,2002 4089,2001 4088,1999 4086,1997 4085,1995 4083,1993 4082,1991 4081,1989 4080,1987 4080,1984 4079,1982 4078,1979 4078,1974 4077,1968 4077,1966 4078,1964 4078,1962 4078,1960 4079,1958 4080,1955 4081,1953 4082,1951 4085,1946 4088,1942 4092,1937 4096,1933 4101,1928 4106,1924 4111,1920 4116,1916 4121,1913 4126,1910 4132,1907 4138,1905 4144,1897 4149,1888 4155,1878 4160,1867 4165,1855 4171,1842 4181,1813 4185,1798 4189,1782 4192,1766 4195,1750 4197,1734 4199,1718 4200,1702 4200,1686 4201,1610 4203,1535 4201,1472 4194,1315 4160,773 4159,774 4158,774 4157,775 4155,775 4152,776 4150,777 4146,777 4139,778 4133,780 4127,781 4121,783 4115,784 4110,785 4104,785 4098,786 4093,786 4089,786 4087,785 4085,785 4084,785 4082,784 4080,783 4078,783 4077,782 4075,781 4072,779 4069,777 4066,774 4063,771 4061,768 4059,765 4058,763 4057,761 4056,760 4056,758 4055,756 4055,754 4054,753 4054,751 4054,747 4054,744 4055,740 4056,737 4057,734 4059,731 4061,728 4063,726 4066,723 4072,718 4080,714 4089,710 4100,706 4112,703 4126,700 4158,696 4195,693 4239,693 4259,693 4269,693 4278,693 4286,694 4290,694 4293,695 4296,696 4299,697 4302,698 4305,699 4308,701 4311,702 4314,704 4316,707 4318,708 4319,709 4321,710 4322,712 4323,713 4324,715 4325,716 4326,718 4326,720 4327,722 4328,724 4328,726 4329,730 4329,734 4328,739 4328,744 4326,748 4325,752 4322,756 4320,759 4316,762 4312,765 4308,767 4303,769 4298,771 4292,772 4286,773 4279,774 4264,775 4263,775 4263,775 4263,775 4263,775 4262,775 4262,775 4262,775 4262,775 4262,774 4262,774 4262,774 4262,774 4262,774 4262,774 4262,773 4259,773 4239,773 4239,786 4239,808 4241,836 4244,868 4248,905 4254,980 4255,1007 4256,1026 4257,1086 4260,1157 4271,1327 4281,1493 4283,1565 4284,1630 4284,1692 4284,1754 4283,1777 4281,1799 4278,1821 4274,1842 4268,1862 4261,1882 4253,1901 4244,1919 4234,1937 4222,1953 4210,1967 4197,1980 4182,1991 4167,2001 4151,2009 4133,2016 Z"/>
        </g>
       </g>
       <g class="com.sun.star.drawing.PolyPolygonShape">
        <g id="id8">
         <rect class="BoundingBox" stroke="none" fill="none" x="4485" y="815" width="428" height="1094"/>
         <path fill="rgb(0,0,0)" stroke="none" d="M 4694,1898 L 4684,1898 4674,1897 4665,1895 4655,1892 4646,1888 4637,1884 4628,1879 4620,1873 4611,1866 4603,1859 4596,1851 4589,1843 4582,1834 4576,1824 4570,1814 4564,1804 4553,1780 4544,1755 4535,1730 4527,1705 4521,1679 4516,1652 4511,1625 4508,1597 4502,1545 4498,1494 4495,1443 4494,1394 4494,1385 4494,1377 4495,1370 4496,1363 4496,1335 4496,1333 4496,1332 4495,1330 4495,1329 4495,1329 4495,1328 4495,1328 4495,1328 4495,1328 4495,1328 4494,1328 4494,1327 4494,1327 4494,1327 4494,1327 4494,1327 4494,1299 4496,1191 4497,1162 4499,1126 4508,1032 4510,1014 4513,996 4517,977 4521,959 4526,941 4531,923 4537,906 4544,888 4547,881 4550,874 4553,867 4556,861 4560,855 4564,850 4567,845 4572,841 4576,837 4580,834 4585,831 4590,829 4592,828 4595,827 4597,826 4600,826 4605,825 4610,825 4626,825 4641,826 4655,828 4669,830 4683,833 4697,837 4710,842 4722,847 4734,853 4746,859 4757,866 4768,874 4778,882 4788,891 4797,900 4806,910 4814,920 4821,930 4828,941 4835,953 4841,965 4847,978 4853,991 4859,1005 4869,1034 4877,1064 4884,1094 4890,1126 4894,1159 4897,1193 4899,1228 4899,1264 4899,1276 4901,1363 4902,1452 4899,1556 4889,1647 4882,1687 4873,1724 4862,1757 4850,1787 4836,1813 4821,1836 4804,1855 4785,1871 4775,1877 4765,1883 4754,1888 4743,1892 4719,1897 4694,1898 Z M 4688,1833 L 4692,1833 4695,1833 4698,1833 4702,1832 4705,1831 4708,1830 4712,1829 4715,1828 4721,1825 4727,1821 4733,1816 4739,1811 4745,1805 4750,1799 4755,1792 4760,1784 4764,1776 4768,1768 4772,1759 4775,1749 4782,1730 4788,1709 4794,1688 4799,1667 4803,1646 4806,1624 4809,1601 4811,1579 4814,1541 4816,1505 4818,1472 4818,1442 4818,1405 4816,1361 4808,1259 4801,1155 4799,1114 4798,1081 4798,1053 4797,1038 4795,1024 4791,1011 4787,998 4781,985 4775,973 4767,961 4759,950 4749,940 4744,935 4739,931 4734,927 4729,924 4724,921 4718,918 4712,915 4707,913 4701,911 4695,909 4689,908 4682,907 4676,907 4669,907 4663,907 4657,908 4651,909 4645,911 4640,913 4635,915 4630,918 4626,922 4621,926 4617,930 4614,935 4610,941 4607,947 4604,953 4602,960 4600,967 4596,980 4593,993 4590,1007 4588,1022 4586,1038 4585,1055 4584,1091 4584,1119 4585,1130 4586,1141 4586,1183 4583,1254 4581,1271 4580,1289 4580,1307 4579,1326 4584,1492 4588,1550 4595,1607 4604,1663 4615,1718 4622,1745 4629,1769 4637,1788 4641,1797 4646,1805 4650,1811 4655,1817 4660,1822 4665,1826 4671,1829 4676,1832 4682,1833 4688,1833 Z"/>
         <path fill="none" stroke="rgb(0,0,0)" stroke-width="18" stroke-linejoin="round" d="M 4694,1898 L 4684,1898 4674,1897 4665,1895 4655,1892 4646,1888 4637,1884 4628,1879 4620,1873 4611,1866 4603,1859 4596,1851 4589,1843 4582,1834 4576,1824 4570,1814 4564,1804 4553,1780 4544,1755 4535,1730 4527,1705 4521,1679 4516,1652 4511,1625 4508,1597 4502,1545 4498,1494 4495,1443 4494,1394 4494,1385 4494,1377 4495,1370 4496,1363 4496,1335 4496,1333 4496,1332 4495,1330 4495,1329 4495,1329 4495,1328 4495,1328 4495,1328 4495,1328 4495,1328 4494,1328 4494,1327 4494,1327 4494,1327 4494,1327 4494,1327 4494,1299 4496,1191 4497,1162 4499,1126 4508,1032 4510,1014 4513,996 4517,977 4521,959 4526,941 4531,923 4537,906 4544,888 4547,881 4550,874 4553,867 4556,861 4560,855 4564,850 4567,845 4572,841 4576,837 4580,834 4585,831 4590,829 4592,828 4595,827 4597,826 4600,826 4605,825 4610,825 4626,825 4641,826 4655,828 4669,830 4683,833 4697,837 4710,842 4722,847 4734,853 4746,859 4757,866 4768,874 4778,882 4788,891 4797,900 4806,910 4814,920 4821,930 4828,941 4835,953 4841,965 4847,978 4853,991 4859,1005 4869,1034 4877,1064 4884,1094 4890,1126 4894,1159 4897,1193 4899,1228 4899,1264 4899,1276 4901,1363 4902,1452 4899,1556 4889,1647 4882,1687 4873,1724 4862,1757 4850,1787 4836,1813 4821,1836 4804,1855 4785,1871 4775,1877 4765,1883 4754,1888 4743,1892 4719,1897 4694,1898 Z"/>
         <path fill="none" stroke="rgb(0,0,0)" stroke-width="18" stroke-linejoin="round" d="M 4688,1833 L 4692,1833 4695,1833 4698,1833 4702,1832 4705,1831 4708,1830 4712,1829 4715,1828 4721,1825 4727,1821 4733,1816 4739,1811 4745,1805 4750,1799 4755,1792 4760,1784 4764,1776 4768,1768 4772,1759 4775,1749 4782,1730 4788,1709 4794,1688 4799,1667 4803,1646 4806,1624 4809,1601 4811,1579 4814,1541 4816,1505 4818,1472 4818,1442 4818,1405 4816,1361 4808,1259 4801,1155 4799,1114 4798,1081 4798,1053 4797,1038 4795,1024 4791,1011 4787,998 4781,985 4775,973 4767,961 4759,950 4749,940 4744,935 4739,931 4734,927 4729,924 4724,921 4718,918 4712,915 4707,913 4701,911 4695,909 4689,908 4682,907 4676,907 4669,907 4663,907 4657,908 4651,909 4645,911 4640,913 4635,915 4630,918 4626,922 4621,926 4617,930 4614,935 4610,941 4607,947 4604,953 4602,960 4600,967 4596,980 4593,993 4590,1007 4588,1022 4586,1038 4585,1055 4584,1091 4584,1119 4585,1130 4586,1141 4586,1183 4583,1254 4581,1271 4580,1289 4580,1307 4579,1326 4584,1492 4588,1550 4595,1607 4604,1663 4615,1718 4622,1745 4629,1769 4637,1788 4641,1797 4646,1805 4650,1811 4655,1817 4660,1822 4665,1826 4671,1829 4676,1832 4682,1833 4688,1833 Z"/>
        </g>
       </g>
       <g class="com.sun.star.drawing.PolyPolygonShape">
        <g id="id9">
         <rect class="BoundingBox" stroke="none" fill="none" x="5039" y="812" width="296" height="1083"/>
         <path fill="rgb(0,0,0)" stroke="none" d="M 5097,1885 L 5093,1884 5089,1884 5085,1883 5081,1883 5078,1882 5075,1880 5072,1879 5069,1877 5067,1875 5064,1873 5062,1871 5060,1868 5059,1865 5057,1862 5056,1859 5055,1855 5053,1850 5052,1845 5051,1839 5050,1833 5049,1826 5049,1818 5049,1802 5055,1638 5061,1550 5062,1509 5063,1472 5067,1225 5070,980 5070,976 5070,972 5069,962 5068,951 5066,938 5061,899 5061,891 5061,883 5062,875 5063,867 5064,860 5065,854 5067,848 5069,843 5071,841 5072,838 5073,836 5075,834 5077,833 5078,831 5080,829 5083,828 5085,827 5087,826 5090,825 5093,824 5096,823 5099,822 5105,822 5112,821 5122,822 5133,823 5144,825 5154,827 5166,830 5177,834 5189,839 5201,845 5212,851 5223,857 5233,864 5242,871 5250,879 5258,887 5265,895 5271,904 5281,923 5290,943 5298,965 5304,987 5309,1011 5313,1036 5315,1063 5316,1090 5315,1130 5312,1167 5310,1184 5308,1200 5305,1216 5302,1230 5298,1244 5293,1258 5288,1272 5283,1285 5276,1298 5269,1311 5262,1323 5253,1335 5263,1346 5273,1357 5281,1369 5289,1381 5295,1394 5301,1408 5306,1423 5310,1438 5314,1455 5317,1472 5321,1509 5324,1551 5325,1596 5324,1619 5323,1642 5320,1663 5317,1684 5312,1704 5306,1724 5300,1743 5292,1760 5282,1779 5271,1797 5259,1813 5246,1827 5232,1840 5217,1851 5201,1861 5184,1869 5173,1873 5162,1876 5151,1878 5140,1881 5129,1882 5118,1884 5108,1884 5097,1885 Z M 5146,1290 L 5156,1289 5161,1288 5165,1287 5170,1285 5174,1283 5178,1281 5182,1278 5189,1271 5196,1263 5202,1253 5207,1242 5212,1230 5216,1216 5219,1201 5222,1184 5226,1146 5227,1102 5226,1055 5223,1014 5218,979 5215,964 5211,950 5207,937 5202,927 5197,917 5191,909 5185,903 5182,900 5178,898 5175,896 5171,895 5167,894 5163,893 5161,898 5159,903 5156,917 5153,933 5151,953 5147,1000 5146,1060 5146,1290 Z M 5137,1805 L 5143,1804 5149,1802 5155,1800 5161,1798 5166,1795 5171,1792 5176,1789 5181,1785 5186,1781 5191,1777 5195,1773 5199,1768 5207,1758 5215,1746 5221,1734 5227,1721 5232,1708 5236,1695 5239,1681 5241,1666 5242,1652 5243,1636 5242,1605 5241,1575 5238,1547 5235,1521 5231,1503 5228,1486 5223,1471 5221,1464 5219,1457 5216,1451 5213,1444 5210,1438 5207,1432 5203,1426 5199,1421 5196,1415 5191,1410 5187,1404 5182,1399 5177,1395 5171,1391 5166,1388 5160,1385 5154,1383 5148,1382 5145,1429 5143,1484 5142,1616 5141,1623 5141,1635 5139,1675 5135,1728 5136,1729 5136,1729 5136,1730 5136,1730 5136,1731 5136,1731 5136,1731 5136,1732 5137,1732 5137,1732 5137,1732 5137,1732 5137,1736 5137,1805 Z"/>
         <path fill="none" stroke="rgb(0,0,0)" stroke-width="18" stroke-linejoin="round" d="M 5097,1885 L 5093,1884 5089,1884 5085,1883 5081,1883 5078,1882 5075,1880 5072,1879 5069,1877 5067,1875 5064,1873 5062,1871 5060,1868 5059,1865 5057,1862 5056,1859 5055,1855 5053,1850 5052,1845 5051,1839 5050,1833 5049,1826 5049,1818 5049,1802 5055,1638 5061,1550 5062,1509 5063,1472 5067,1225 5070,980 5070,976 5070,972 5069,962 5068,951 5066,938 5061,899 5061,891 5061,883 5062,875 5063,867 5064,860 5065,854 5067,848 5069,843 5071,841 5072,838 5073,836 5075,834 5077,833 5078,831 5080,829 5083,828 5085,827 5087,826 5090,825 5093,824 5096,823 5099,822 5105,822 5112,821 5122,822 5133,823 5144,825 5154,827 5166,830 5177,834 5189,839 5201,845 5212,851 5223,857 5233,864 5242,871 5250,879 5258,887 5265,895 5271,904 5281,923 5290,943 5298,965 5304,987 5309,1011 5313,1036 5315,1063 5316,1090 5315,1130 5312,1167 5310,1184 5308,1200 5305,1216 5302,1230 5298,1244 5293,1258 5288,1272 5283,1285 5276,1298 5269,1311 5262,1323 5253,1335 5263,1346 5273,1357 5281,1369 5289,1381 5295,1394 5301,1408 5306,1423 5310,1438 5314,1455 5317,1472 5321,1509 5324,1551 5325,1596 5324,1619 5323,1642 5320,1663 5317,1684 5312,1704 5306,1724 5300,1743 5292,1760 5282,1779 5271,1797 5259,1813 5246,1827 5232,1840 5217,1851 5201,1861 5184,1869 5173,1873 5162,1876 5151,1878 5140,1881 5129,1882 5118,1884 5108,1884 5097,1885 Z"/>
         <path fill="none" stroke="rgb(0,0,0)" stroke-width="18" stroke-linejoin="round" d="M 5146,1290 L 5156,1289 5161,1288 5165,1287 5170,1285 5174,1283 5178,1281 5182,1278 5189,1271 5196,1263 5202,1253 5207,1242 5212,1230 5216,1216 5219,1201 5222,1184 5226,1146 5227,1102 5226,1055 5223,1014 5218,979 5215,964 5211,950 5207,937 5202,927 5197,917 5191,909 5185,903 5182,900 5178,898 5175,896 5171,895 5167,894 5163,893 5161,898 5159,903 5156,917 5153,933 5151,953 5147,1000 5146,1060 5146,1290 Z"/>
         <path fill="none" stroke="rgb(0,0,0)" stroke-width="18" stroke-linejoin="round" d="M 5137,1805 L 5143,1804 5149,1802 5155,1800 5161,1798 5166,1795 5171,1792 5176,1789 5181,1785 5186,1781 5191,1777 5195,1773 5199,1768 5207,1758 5215,1746 5221,1734 5227,1721 5232,1708 5236,1695 5239,1681 5241,1666 5242,1652 5243,1636 5242,1605 5241,1575 5238,1547 5235,1521 5231,1503 5228,1486 5223,1471 5221,1464 5219,1457 5216,1451 5213,1444 5210,1438 5207,1432 5203,1426 5199,1421 5196,1415 5191,1410 5187,1404 5182,1399 5177,1395 5171,1391 5166,1388 5160,1385 5154,1383 5148,1382 5145,1429 5143,1484 5142,1616 5141,1623 5141,1635 5139,1675 5135,1728 5136,1729 5136,1729 5136,1730 5136,1730 5136,1731 5136,1731 5136,1731 5136,1732 5137,1732 5137,1732 5137,1732 5137,1732 5137,1736 5137,1805 Z"/>
        </g>
       </g>
       <g class="com.sun.star.drawing.PolyPolygonShape">
        <g id="id10">
         <rect class="BoundingBox" stroke="none" fill="none" x="5707" y="683" width="442" height="1200"/>
         <path fill="rgb(0,0,0)" stroke="none" d="M 5817,1872 L 5810,1872 5802,1871 5795,1870 5788,1869 5782,1867 5776,1864 5769,1861 5764,1858 5761,1856 5758,1854 5756,1853 5754,1850 5752,1848 5750,1846 5748,1844 5747,1841 5746,1839 5744,1836 5743,1834 5743,1831 5742,1828 5742,1825 5741,1822 5741,1819 5745,1815 5749,1809 5753,1803 5756,1795 5759,1787 5762,1778 5767,1757 5771,1732 5773,1704 5775,1673 5775,1638 5774,1588 5772,1529 5761,1380 5750,1236 5747,1176 5746,1126 5749,1040 5751,955 5750,944 5750,932 5747,906 5742,877 5735,845 5727,812 5721,785 5719,774 5718,763 5717,755 5716,747 5717,740 5718,734 5719,731 5721,728 5722,726 5724,723 5728,718 5733,714 5739,710 5746,706 5754,703 5763,700 5773,698 5784,696 5808,693 5836,693 5859,693 5880,693 5900,696 5919,700 5938,705 5955,713 5973,721 5989,732 6005,744 6017,755 6029,768 6040,782 6051,797 6061,813 6071,831 6080,850 6089,870 6095,884 6100,900 6111,936 6120,978 6129,1025 6136,1102 6138,1134 6139,1161 6139,1211 6139,1284 6138,1285 6137,1287 6137,1289 6136,1290 6136,1292 6136,1293 6135,1295 6135,1296 6136,1302 6136,1307 6136,1309 6136,1311 6137,1313 6137,1315 6137,1317 6138,1318 6138,1320 6138,1322 6138,1326 6139,1330 6138,1343 6138,1357 6135,1385 6130,1416 6124,1449 6116,1484 6106,1519 6094,1554 6081,1590 6063,1631 6045,1669 6026,1704 6007,1736 5987,1764 5967,1790 5946,1812 5924,1832 5911,1841 5898,1849 5885,1856 5872,1862 5859,1866 5845,1870 5831,1871 5817,1872 Z M 5850,1782 L 5864,1773 5878,1762 5891,1751 5904,1738 5916,1725 5928,1711 5940,1695 5951,1679 5961,1662 5971,1644 5980,1626 5989,1608 5997,1589 6005,1569 6011,1549 6017,1529 6027,1491 6036,1453 6043,1415 6049,1376 6053,1338 6057,1299 6059,1261 6059,1222 6058,1179 6056,1134 6051,1087 6044,1039 6039,1015 6033,992 6026,969 6017,947 6007,926 5996,905 5984,885 5971,865 5964,856 5957,847 5949,839 5941,832 5932,825 5923,818 5914,812 5904,807 5894,802 5883,797 5872,794 5861,791 5850,789 5838,787 5825,786 5813,786 5813,787 5814,866 5817,963 5831,1209 5845,1456 5849,1554 5850,1635 5850,1782 Z"/>
         <path fill="none" stroke="rgb(0,0,0)" stroke-width="18" stroke-linejoin="round" d="M 5817,1872 L 5810,1872 5802,1871 5795,1870 5788,1869 5782,1867 5776,1864 5769,1861 5764,1858 5761,1856 5758,1854 5756,1853 5754,1850 5752,1848 5750,1846 5748,1844 5747,1841 5746,1839 5744,1836 5743,1834 5743,1831 5742,1828 5742,1825 5741,1822 5741,1819 5745,1815 5749,1809 5753,1803 5756,1795 5759,1787 5762,1778 5767,1757 5771,1732 5773,1704 5775,1673 5775,1638 5774,1588 5772,1529 5761,1380 5750,1236 5747,1176 5746,1126 5749,1040 5751,955 5750,944 5750,932 5747,906 5742,877 5735,845 5727,812 5721,785 5719,774 5718,763 5717,755 5716,747 5717,740 5718,734 5719,731 5721,728 5722,726 5724,723 5728,718 5733,714 5739,710 5746,706 5754,703 5763,700 5773,698 5784,696 5808,693 5836,693 5859,693 5880,693 5900,696 5919,700 5938,705 5955,713 5973,721 5989,732 6005,744 6017,755 6029,768 6040,782 6051,797 6061,813 6071,831 6080,850 6089,870 6095,884 6100,900 6111,936 6120,978 6129,1025 6136,1102 6138,1134 6139,1161 6139,1211 6139,1284 6138,1285 6137,1287 6137,1289 6136,1290 6136,1292 6136,1293 6135,1295 6135,1296 6136,1302 6136,1307 6136,1309 6136,1311 6137,1313 6137,1315 6137,1317 6138,1318 6138,1320 6138,1322 6138,1326 6139,1330 6138,1343 6138,1357 6135,1385 6130,1416 6124,1449 6116,1484 6106,1519 6094,1554 6081,1590 6063,1631 6045,1669 6026,1704 6007,1736 5987,1764 5967,1790 5946,1812 5924,1832 5911,1841 5898,1849 5885,1856 5872,1862 5859,1866 5845,1870 5831,1871 5817,1872 Z"/>
         <path fill="none" stroke="rgb(0,0,0)" stroke-width="18" stroke-linejoin="round" d="M 5850,1782 L 5864,1773 5878,1762 5891,1751 5904,1738 5916,1725 5928,1711 5940,1695 5951,1679 5961,1662 5971,1644 5980,1626 5989,1608 5997,1589 6005,1569 6011,1549 6017,1529 6027,1491 6036,1453 6043,1415 6049,1376 6053,1338 6057,1299 6059,1261 6059,1222 6058,1179 6056,1134 6051,1087 6044,1039 6039,1015 6033,992 6026,969 6017,947 6007,926 5996,905 5984,885 5971,865 5964,856 5957,847 5949,839 5941,832 5932,825 5923,818 5914,812 5904,807 5894,802 5883,797 5872,794 5861,791 5850,789 5838,787 5825,786 5813,786 5813,787 5814,866 5817,963 5831,1209 5845,1456 5849,1554 5850,1635 5850,1782 Z"/>
        </g>
       </g>
       <g class="com.sun.star.drawing.PolyPolygonShape">
        <g id="id11">
         <rect class="BoundingBox" stroke="none" fill="none" x="6241" y="826" width="299" height="1052"/>
         <path fill="rgb(0,0,0)" stroke="none" d="M 6385,1867 L 6354,1867 6326,1865 6303,1861 6293,1859 6284,1856 6276,1853 6269,1849 6263,1845 6259,1841 6257,1839 6255,1837 6254,1834 6252,1832 6251,1829 6251,1827 6250,1824 6250,1821 6250,1816 6251,1812 6252,1808 6253,1805 6255,1801 6257,1798 6259,1795 6262,1793 6265,1791 6269,1789 6273,1787 6277,1786 6282,1785 6287,1784 6293,1784 6298,1784 6315,1784 6331,1785 6334,1785 6337,1785 6338,1784 6339,1784 6340,1784 6341,1783 6342,1783 6343,1782 6344,1782 6345,1781 6346,1780 6347,1779 6347,1778 6348,1777 6349,1776 6349,1775 6350,1774 6350,1773 6351,1770 6352,1767 6352,1763 6352,1759 6353,1754 6353,1749 6350,1667 6347,1645 6345,1615 6339,1534 6325,1175 6326,1096 6328,1017 6328,992 6327,970 6325,950 6323,932 6312,934 6302,936 6298,937 6294,937 6290,938 6287,938 6283,938 6279,937 6275,936 6271,935 6268,934 6265,933 6262,931 6260,928 6257,926 6255,923 6254,920 6253,917 6252,913 6251,909 6250,905 6250,901 6250,898 6251,896 6251,894 6252,892 6253,889 6254,887 6255,885 6256,883 6258,881 6259,879 6261,877 6263,875 6268,872 6274,868 6280,865 6286,861 6293,859 6300,856 6307,854 6315,851 6324,849 6333,848 6363,842 6391,838 6418,836 6443,835 6447,836 6452,836 6454,837 6456,837 6458,838 6460,839 6462,840 6464,841 6466,842 6468,843 6471,845 6475,849 6478,852 6480,855 6483,859 6484,861 6484,863 6485,865 6486,867 6486,869 6487,871 6487,873 6487,875 6488,879 6488,883 6487,887 6486,891 6485,895 6484,898 6482,902 6480,905 6478,908 6475,911 6474,913 6472,914 6471,915 6469,916 6468,917 6466,918 6465,918 6463,919 6461,920 6459,920 6458,920 6456,921 6454,921 6452,921 6448,921 6443,920 6442,920 6440,920 6438,920 6436,919 6424,919 6420,919 6417,920 6414,920 6411,921 6409,921 6408,922 6407,922 6406,923 6404,924 6403,925 6402,925 6402,926 6401,927 6400,928 6399,929 6399,930 6398,932 6397,933 6397,934 6396,936 6396,939 6395,943 6395,947 6395,952 6396,1037 6399,1140 6413,1405 6426,1569 6429,1605 6431,1642 6433,1678 6433,1715 6433,1774 6436,1774 6439,1774 6446,1773 6454,1773 6464,1773 6472,1773 6480,1774 6487,1775 6493,1776 6499,1778 6504,1780 6509,1783 6513,1786 6517,1790 6520,1794 6523,1798 6526,1803 6527,1809 6529,1814 6529,1821 6530,1827 6530,1836 6491,1863 6490,1863 6488,1863 6481,1864 6476,1864 6468,1864 6449,1864 6408,1867 6394,1867 6385,1867 Z"/>
         <path fill="none" stroke="rgb(0,0,0)" stroke-width="18" stroke-linejoin="round" d="M 6385,1867 L 6354,1867 6326,1865 6303,1861 6293,1859 6284,1856 6276,1853 6269,1849 6263,1845 6259,1841 6257,1839 6255,1837 6254,1834 6252,1832 6251,1829 6251,1827 6250,1824 6250,1821 6250,1816 6251,1812 6252,1808 6253,1805 6255,1801 6257,1798 6259,1795 6262,1793 6265,1791 6269,1789 6273,1787 6277,1786 6282,1785 6287,1784 6293,1784 6298,1784 6315,1784 6331,1785 6334,1785 6337,1785 6338,1784 6339,1784 6340,1784 6341,1783 6342,1783 6343,1782 6344,1782 6345,1781 6346,1780 6347,1779 6347,1778 6348,1777 6349,1776 6349,1775 6350,1774 6350,1773 6351,1770 6352,1767 6352,1763 6352,1759 6353,1754 6353,1749 6350,1667 6347,1645 6345,1615 6339,1534 6325,1175 6326,1096 6328,1017 6328,992 6327,970 6325,950 6323,932 6312,934 6302,936 6298,937 6294,937 6290,938 6287,938 6283,938 6279,937 6275,936 6271,935 6268,934 6265,933 6262,931 6260,928 6257,926 6255,923 6254,920 6253,917 6252,913 6251,909 6250,905 6250,901 6250,898 6251,896 6251,894 6252,892 6253,889 6254,887 6255,885 6256,883 6258,881 6259,879 6261,877 6263,875 6268,872 6274,868 6280,865 6286,861 6293,859 6300,856 6307,854 6315,851 6324,849 6333,848 6363,842 6391,838 6418,836 6443,835 6447,836 6452,836 6454,837 6456,837 6458,838 6460,839 6462,840 6464,841 6466,842 6468,843 6471,845 6475,849 6478,852 6480,855 6483,859 6484,861 6484,863 6485,865 6486,867 6486,869 6487,871 6487,873 6487,875 6488,879 6488,883 6487,887 6486,891 6485,895 6484,898 6482,902 6480,905 6478,908 6475,911 6474,913 6472,914 6471,915 6469,916 6468,917 6466,918 6465,918 6463,919 6461,920 6459,920 6458,920 6456,921 6454,921 6452,921 6448,921 6443,920 6442,920 6440,920 6438,920 6436,919 6424,919 6420,919 6417,920 6414,920 6411,921 6409,921 6408,922 6407,922 6406,923 6404,924 6403,925 6402,925 6402,926 6401,927 6400,928 6399,929 6399,930 6398,932 6397,933 6397,934 6396,936 6396,939 6395,943 6395,947 6395,952 6396,1037 6399,1140 6413,1405 6426,1569 6429,1605 6431,1642 6433,1678 6433,1715 6433,1774 6436,1774 6439,1774 6446,1773 6454,1773 6464,1773 6472,1773 6480,1774 6487,1775 6493,1776 6499,1778 6504,1780 6509,1783 6513,1786 6517,1790 6520,1794 6523,1798 6526,1803 6527,1809 6529,1814 6529,1821 6530,1827 6530,1836 6491,1863 6490,1863 6488,1863 6481,1864 6476,1864 6468,1864 6449,1864 6408,1867 6394,1867 6385,1867 Z"/>
        </g>
       </g>
       <g class="com.sun.star.drawing.PolyPolygonShape">
        <g id="id12">
         <rect class="BoundingBox" stroke="none" fill="none" x="6554" y="820" width="427" height="1073"/>
         <path fill="rgb(0,0,0)" stroke="none" d="M 6945,1883 L 6937,1883 6929,1882 6921,1881 6914,1880 6908,1879 6902,1877 6897,1875 6895,1873 6893,1872 6891,1871 6889,1869 6887,1867 6885,1866 6884,1863 6882,1861 6881,1859 6880,1857 6879,1854 6878,1851 6877,1848 6877,1845 6876,1839 6876,1832 6875,1804 6872,1769 6867,1725 6860,1673 6854,1641 6700,1618 6695,1640 6689,1672 6674,1762 6671,1780 6668,1797 6665,1812 6662,1825 6658,1837 6654,1847 6652,1852 6649,1856 6647,1859 6644,1863 6643,1864 6641,1866 6640,1868 6638,1869 6637,1870 6635,1871 6633,1872 6631,1873 6629,1874 6627,1875 6625,1875 6623,1876 6621,1876 6618,1877 6613,1877 6609,1877 6604,1876 6600,1875 6595,1874 6591,1872 6587,1870 6583,1868 6579,1865 6576,1862 6574,1861 6572,1859 6571,1857 6570,1856 6569,1854 6568,1852 6567,1850 6566,1848 6565,1847 6565,1845 6564,1843 6564,1841 6564,1839 6564,1836 6567,1829 6568,1822 6616,1624 6658,1426 6694,1230 6723,1036 6724,1032 6724,1027 6725,1015 6728,972 6733,920 6736,899 6738,880 6740,872 6741,864 6743,857 6745,851 6748,844 6750,839 6753,834 6756,829 6809,829 6814,829 6819,830 6824,831 6829,832 6834,833 6838,835 6842,837 6846,839 6848,841 6850,842 6851,843 6853,845 6854,846 6856,848 6857,850 6858,851 6859,853 6859,855 6860,857 6861,859 6861,861 6861,863 6862,866 6862,868 6864,934 6870,1015 6880,1109 6894,1219 6917,1422 6923,1497 6925,1554 6925,1557 6926,1560 6927,1571 6933,1602 6936,1618 6939,1632 6940,1642 6941,1646 6941,1649 6941,1652 6942,1659 6945,1677 6956,1742 6962,1776 6967,1803 6969,1824 6970,1832 6970,1838 6970,1840 6970,1848 6969,1851 6969,1855 6968,1858 6967,1862 6965,1865 6964,1867 6962,1870 6961,1872 6959,1875 6956,1877 6954,1879 6951,1880 6948,1882 6945,1883 Z M 6843,1585 L 6842,1579 6841,1573 6839,1559 6839,1544 6838,1528 6837,1453 6832,1368 6824,1274 6813,1171 6798,1009 6706,1560 6710,1562 6714,1564 6718,1566 6724,1568 6737,1571 6752,1574 6792,1580 6843,1585 Z"/>
         <path fill="none" stroke="rgb(0,0,0)" stroke-width="18" stroke-linejoin="round" d="M 6945,1883 L 6937,1883 6929,1882 6921,1881 6914,1880 6908,1879 6902,1877 6897,1875 6895,1873 6893,1872 6891,1871 6889,1869 6887,1867 6885,1866 6884,1863 6882,1861 6881,1859 6880,1857 6879,1854 6878,1851 6877,1848 6877,1845 6876,1839 6876,1832 6875,1804 6872,1769 6867,1725 6860,1673 6854,1641 6700,1618 6695,1640 6689,1672 6674,1762 6671,1780 6668,1797 6665,1812 6662,1825 6658,1837 6654,1847 6652,1852 6649,1856 6647,1859 6644,1863 6643,1864 6641,1866 6640,1868 6638,1869 6637,1870 6635,1871 6633,1872 6631,1873 6629,1874 6627,1875 6625,1875 6623,1876 6621,1876 6618,1877 6613,1877 6609,1877 6604,1876 6600,1875 6595,1874 6591,1872 6587,1870 6583,1868 6579,1865 6576,1862 6574,1861 6572,1859 6571,1857 6570,1856 6569,1854 6568,1852 6567,1850 6566,1848 6565,1847 6565,1845 6564,1843 6564,1841 6564,1839 6564,1836 6567,1829 6568,1822 6616,1624 6658,1426 6694,1230 6723,1036 6724,1032 6724,1027 6725,1015 6728,972 6733,920 6736,899 6738,880 6740,872 6741,864 6743,857 6745,851 6748,844 6750,839 6753,834 6756,829 6809,829 6814,829 6819,830 6824,831 6829,832 6834,833 6838,835 6842,837 6846,839 6848,841 6850,842 6851,843 6853,845 6854,846 6856,848 6857,850 6858,851 6859,853 6859,855 6860,857 6861,859 6861,861 6861,863 6862,866 6862,868 6864,934 6870,1015 6880,1109 6894,1219 6917,1422 6923,1497 6925,1554 6925,1557 6926,1560 6927,1571 6933,1602 6936,1618 6939,1632 6940,1642 6941,1646 6941,1649 6941,1652 6942,1659 6945,1677 6956,1742 6962,1776 6967,1803 6969,1824 6970,1832 6970,1838 6970,1840 6970,1848 6969,1851 6969,1855 6968,1858 6967,1862 6965,1865 6964,1867 6962,1870 6961,1872 6959,1875 6956,1877 6954,1879 6951,1880 6948,1882 6945,1883 Z"/>
         <path fill="none" stroke="rgb(0,0,0)" stroke-width="18" stroke-linejoin="round" d="M 6843,1585 L 6842,1579 6841,1573 6839,1559 6839,1544 6838,1528 6837,1453 6832,1368 6824,1274 6813,1171 6798,1009 6706,1560 6710,1562 6714,1564 6718,1566 6724,1568 6737,1571 6752,1574 6792,1580 6843,1585 Z"/>
        </g>
       </g>
       <g class="com.sun.star.drawing.PolyPolygonShape">
        <g id="id13">
         <rect class="BoundingBox" stroke="none" fill="none" x="7073" y="824" width="329" height="1082"/>
         <path fill="rgb(0,0,0)" stroke="none" d="M 7357,1895 L 7353,1895 7349,1894 7345,1893 7341,1891 7337,1888 7333,1885 7329,1881 7325,1877 7321,1872 7317,1866 7310,1853 7302,1838 7295,1821 7280,1780 7267,1739 7256,1697 7247,1655 7236,1602 7199,1428 7187,1377 7182,1360 7179,1349 7160,1349 7159,1431 7159,1517 7160,1615 7166,1702 7170,1741 7175,1777 7181,1811 7188,1841 7171,1883 7128,1883 7107,1860 7109,1756 7095,1332 7083,908 7083,891 7084,883 7086,876 7088,869 7090,863 7092,857 7095,852 7099,848 7103,844 7107,841 7111,838 7116,836 7122,835 7128,834 7134,834 7154,834 7174,837 7192,840 7210,845 7227,851 7242,858 7257,867 7271,877 7278,883 7284,889 7289,895 7295,901 7299,908 7304,915 7308,922 7311,929 7314,937 7317,945 7319,953 7321,962 7324,979 7325,998 7325,1107 7325,1113 7324,1119 7324,1125 7323,1132 7320,1146 7317,1161 7313,1175 7309,1188 7304,1199 7302,1205 7300,1209 7270,1265 7246,1312 7253,1349 7275,1459 7296,1568 7307,1613 7317,1653 7328,1690 7339,1724 7352,1757 7367,1788 7376,1807 7380,1814 7383,1822 7385,1828 7388,1835 7389,1841 7390,1846 7391,1852 7391,1857 7391,1860 7391,1864 7390,1868 7389,1871 7388,1874 7386,1878 7384,1881 7382,1884 7381,1885 7380,1886 7378,1888 7377,1889 7376,1890 7374,1891 7373,1892 7371,1892 7370,1893 7368,1894 7366,1894 7365,1895 7363,1895 7361,1895 7357,1895 Z M 7166,1273 L 7171,1271 7175,1268 7179,1265 7183,1261 7187,1257 7191,1252 7194,1247 7198,1241 7205,1228 7212,1214 7218,1197 7225,1179 7230,1160 7235,1141 7239,1123 7243,1105 7245,1088 7247,1070 7248,1054 7249,1037 7248,1025 7248,1013 7247,1001 7246,989 7244,977 7242,966 7239,955 7236,944 7234,938 7232,932 7229,927 7226,922 7223,918 7219,913 7215,909 7211,906 7206,903 7201,900 7196,898 7191,896 7185,895 7179,894 7173,893 7166,893 7163,901 7160,915 7163,1098 7166,1273 Z"/>
         <path fill="none" stroke="rgb(0,0,0)" stroke-width="18" stroke-linejoin="round" d="M 7357,1895 L 7353,1895 7349,1894 7345,1893 7341,1891 7337,1888 7333,1885 7329,1881 7325,1877 7321,1872 7317,1866 7310,1853 7302,1838 7295,1821 7280,1780 7267,1739 7256,1697 7247,1655 7236,1602 7199,1428 7187,1377 7182,1360 7179,1349 7160,1349 7159,1431 7159,1517 7160,1615 7166,1702 7170,1741 7175,1777 7181,1811 7188,1841 7171,1883 7128,1883 7107,1860 7109,1756 7095,1332 7083,908 7083,891 7084,883 7086,876 7088,869 7090,863 7092,857 7095,852 7099,848 7103,844 7107,841 7111,838 7116,836 7122,835 7128,834 7134,834 7154,834 7174,837 7192,840 7210,845 7227,851 7242,858 7257,867 7271,877 7278,883 7284,889 7289,895 7295,901 7299,908 7304,915 7308,922 7311,929 7314,937 7317,945 7319,953 7321,962 7324,979 7325,998 7325,1107 7325,1113 7324,1119 7324,1125 7323,1132 7320,1146 7317,1161 7313,1175 7309,1188 7304,1199 7302,1205 7300,1209 7270,1265 7246,1312 7253,1349 7275,1459 7296,1568 7307,1613 7317,1653 7328,1690 7339,1724 7352,1757 7367,1788 7376,1807 7380,1814 7383,1822 7385,1828 7388,1835 7389,1841 7390,1846 7391,1852 7391,1857 7391,1860 7391,1864 7390,1868 7389,1871 7388,1874 7386,1878 7384,1881 7382,1884 7381,1885 7380,1886 7378,1888 7377,1889 7376,1890 7374,1891 7373,1892 7371,1892 7370,1893 7368,1894 7366,1894 7365,1895 7363,1895 7361,1895 7357,1895 Z"/>
         <path fill="none" stroke="rgb(0,0,0)" stroke-width="18" stroke-linejoin="round" d="M 7166,1273 L 7171,1271 7175,1268 7179,1265 7183,1261 7187,1257 7191,1252 7194,1247 7198,1241 7205,1228 7212,1214 7218,1197 7225,1179 7230,1160 7235,1141 7239,1123 7243,1105 7245,1088 7247,1070 7248,1054 7249,1037 7248,1025 7248,1013 7247,1001 7246,989 7244,977 7242,966 7239,955 7236,944 7234,938 7232,932 7229,927 7226,922 7223,918 7219,913 7215,909 7211,906 7206,903 7201,900 7196,898 7191,896 7185,895 7179,894 7173,893 7166,893 7163,901 7160,915 7163,1098 7166,1273 Z"/>
        </g>
       </g>
       <g class="com.sun.star.drawing.PolyPolygonShape">
        <g id="id14">
         <rect class="BoundingBox" stroke="none" fill="none" x="7445" y="827" width="357" height="1074"/>
         <path fill="rgb(0,0,0)" stroke="none" d="M 7650,1891 L 7647,1891 7643,1890 7640,1890 7637,1889 7634,1887 7631,1886 7629,1884 7626,1882 7623,1880 7621,1877 7618,1875 7616,1872 7611,1865 7606,1857 7609,1852 7610,1845 7614,1828 7617,1804 7619,1774 7622,1696 7624,1593 7623,1565 7622,1536 7619,1506 7616,1475 7611,1430 7608,1393 7607,1378 7606,1366 7606,1326 7550,1181 7484,1005 7471,967 7462,935 7459,922 7456,911 7455,901 7454,897 7454,893 7454,885 7490,859 7493,859 7497,860 7500,862 7503,864 7507,867 7510,870 7514,873 7517,877 7524,887 7531,898 7539,912 7546,927 7559,959 7572,997 7586,1041 7601,1091 7624,1173 7629,1195 7631,1202 7631,1204 7631,1205 7633,1199 7635,1191 7641,1167 7656,1088 7666,1040 7676,995 7687,952 7698,913 7705,895 7711,880 7718,867 7721,861 7725,856 7728,851 7732,848 7735,844 7738,842 7742,840 7745,838 7747,838 7749,837 7751,837 7752,837 7756,837 7760,838 7763,838 7767,839 7770,841 7773,842 7777,844 7780,846 7782,849 7783,850 7785,851 7786,853 7787,854 7787,855 7788,857 7789,858 7790,860 7790,861 7790,863 7791,864 7791,866 7791,868 7791,870 7790,890 7788,913 7785,938 7780,965 7767,1025 7748,1093 7727,1166 7713,1228 7708,1255 7704,1279 7702,1301 7701,1320 7701,1787 7700,1811 7698,1832 7696,1842 7694,1850 7691,1858 7688,1865 7685,1871 7681,1876 7677,1881 7672,1884 7667,1887 7662,1889 7656,1890 7650,1891 Z"/>
         <path fill="none" stroke="rgb(0,0,0)" stroke-width="18" stroke-linejoin="round" d="M 7650,1891 L 7647,1891 7643,1890 7640,1890 7637,1889 7634,1887 7631,1886 7629,1884 7626,1882 7623,1880 7621,1877 7618,1875 7616,1872 7611,1865 7606,1857 7609,1852 7610,1845 7614,1828 7617,1804 7619,1774 7622,1696 7624,1593 7623,1565 7622,1536 7619,1506 7616,1475 7611,1430 7608,1393 7607,1378 7606,1366 7606,1326 7550,1181 7484,1005 7471,967 7462,935 7459,922 7456,911 7455,901 7454,897 7454,893 7454,885 7490,859 7493,859 7497,860 7500,862 7503,864 7507,867 7510,870 7514,873 7517,877 7524,887 7531,898 7539,912 7546,927 7559,959 7572,997 7586,1041 7601,1091 7624,1173 7629,1195 7631,1202 7631,1204 7631,1205 7633,1199 7635,1191 7641,1167 7656,1088 7666,1040 7676,995 7687,952 7698,913 7705,895 7711,880 7718,867 7721,861 7725,856 7728,851 7732,848 7735,844 7738,842 7742,840 7745,838 7747,838 7749,837 7751,837 7752,837 7756,837 7760,838 7763,838 7767,839 7770,841 7773,842 7777,844 7780,846 7782,849 7783,850 7785,851 7786,853 7787,854 7787,855 7788,857 7789,858 7790,860 7790,861 7790,863 7791,864 7791,866 7791,868 7791,870 7790,890 7788,913 7785,938 7780,965 7767,1025 7748,1093 7727,1166 7713,1228 7708,1255 7704,1279 7702,1301 7701,1320 7701,1787 7700,1811 7698,1832 7696,1842 7694,1850 7691,1858 7688,1865 7685,1871 7681,1876 7677,1881 7672,1884 7667,1887 7662,1889 7656,1890 7650,1891 Z"/>
        </g>
       </g>
      </g>
     </g>
    </g>
   </g>
  </g>
 </g>
</svg>